<svg xmlns="http://www.w3.org/2000/svg" xmlns:xlink="http://www.w3.org/1999/xlink" viewBox="0 0 3710 3710"><defs><style>.cls-1{fill:#fff;}.cls-2{fill:url(#linear-gradient);}.cls-3{fill:url(#linear-gradient-2);}.cls-4{fill:#7d97f4;}.cls-5{fill:url(#linear-gradient-3);}.cls-6{fill:#91b3fa;}.cls-7{fill:url(#linear-gradient-4);}.cls-10,.cls-11,.cls-8,.cls-9{opacity:0.7;}.cls-8{fill:url(#linear-gradient-5);}.cls-9{fill:url(#linear-gradient-6);}.cls-10{fill:url(#linear-gradient-7);}.cls-11{fill:url(#linear-gradient-8);}.cls-12{opacity:0.64;}.cls-13{fill:url(#linear-gradient-9);}.cls-14{fill:url(#linear-gradient-10);}.cls-15{fill:url(#linear-gradient-11);}.cls-16{fill:url(#linear-gradient-12);}.cls-17{fill:url(#linear-gradient-13);}.cls-18{fill:url(#linear-gradient-14);}.cls-19{fill:url(#linear-gradient-15);}.cls-20{fill:url(#linear-gradient-16);}.cls-21{fill:url(#linear-gradient-17);}.cls-22{fill:url(#linear-gradient-18);}.cls-23{fill:url(#linear-gradient-19);}.cls-24{fill:url(#linear-gradient-20);}.cls-25{fill:url(#linear-gradient-21);}.cls-26{fill:url(#linear-gradient-22);}.cls-27{fill:url(#linear-gradient-23);}.cls-28{fill:url(#linear-gradient-24);}.cls-29{fill:url(#linear-gradient-25);}.cls-30{fill:url(#linear-gradient-26);}.cls-31{fill:url(#linear-gradient-27);}.cls-32{fill:url(#linear-gradient-28);}.cls-33{fill:url(#linear-gradient-29);}.cls-34{fill:url(#linear-gradient-30);}.cls-35{fill:url(#linear-gradient-31);}.cls-36{fill:url(#linear-gradient-32);}.cls-37{fill:url(#linear-gradient-33);}.cls-38{fill:url(#linear-gradient-34);}.cls-39{fill:url(#linear-gradient-35);}.cls-40{fill:url(#linear-gradient-36);}.cls-41{fill:url(#linear-gradient-37);}.cls-42{fill:url(#linear-gradient-38);}.cls-43{fill:url(#linear-gradient-39);}.cls-44{fill:url(#linear-gradient-40);}.cls-45{fill:url(#linear-gradient-41);}.cls-46{fill:url(#linear-gradient-42);}.cls-47{fill:url(#linear-gradient-43);}.cls-48{fill:url(#linear-gradient-44);}.cls-49{fill:url(#linear-gradient-45);}.cls-50{fill:url(#linear-gradient-46);}.cls-51{fill:url(#linear-gradient-47);}.cls-52{fill:url(#linear-gradient-48);}.cls-53{fill:url(#linear-gradient-49);}.cls-54{fill:url(#linear-gradient-50);}.cls-55{fill:url(#linear-gradient-51);}.cls-56{fill:url(#linear-gradient-52);}.cls-57{fill:url(#linear-gradient-53);}.cls-58{fill:url(#linear-gradient-54);}.cls-59{fill:url(#linear-gradient-55);}.cls-60{fill:url(#linear-gradient-56);}.cls-61{fill:url(#linear-gradient-57);}.cls-62{fill:url(#linear-gradient-58);}.cls-63{fill:url(#linear-gradient-59);}.cls-64{fill:url(#linear-gradient-60);}.cls-65{fill:url(#linear-gradient-61);}.cls-66{fill:url(#linear-gradient-62);}.cls-67{fill:url(#linear-gradient-63);}.cls-68{fill:url(#linear-gradient-64);}.cls-69{fill:url(#linear-gradient-65);}.cls-70{fill:url(#linear-gradient-66);}.cls-71{fill:url(#linear-gradient-67);}.cls-72{fill:url(#linear-gradient-68);}.cls-73{fill:url(#linear-gradient-69);}.cls-74{fill:url(#linear-gradient-70);}.cls-75{fill:url(#linear-gradient-71);}.cls-76{fill:url(#linear-gradient-72);}.cls-77{fill:url(#linear-gradient-73);}.cls-78{fill:url(#linear-gradient-74);}.cls-79{fill:url(#linear-gradient-75);}.cls-80{fill:url(#linear-gradient-76);}.cls-81{fill:#bdd0fb;}.cls-82{fill:url(#linear-gradient-77);}.cls-83{opacity:0.3;}.cls-84{fill:url(#linear-gradient-78);}.cls-85{fill:url(#linear-gradient-79);}.cls-86{fill:url(#linear-gradient-80);}.cls-87{fill:url(#linear-gradient-81);}</style><linearGradient id="linear-gradient" x1="3456.55" y1="3267.22" x2="1407.11" y2="1473.96" gradientUnits="userSpaceOnUse"><stop offset="0" stop-color="#dae3fe"/><stop offset="1" stop-color="#e9effd"/></linearGradient><linearGradient id="linear-gradient-2" x1="710.62" y1="1774.91" x2="1220.74" y2="1882.94" gradientUnits="userSpaceOnUse"><stop offset="0" stop-color="#4f52ff"/><stop offset="1" stop-color="#4042e2"/></linearGradient><linearGradient id="linear-gradient-3" x1="2535.06" y1="1020.2" x2="2499.21" y2="1656.42" xlink:href="#linear-gradient-2"/><linearGradient id="linear-gradient-4" x1="1517.77" y1="1278.16" x2="2423.99" y2="2868.55" xlink:href="#linear-gradient-2"/><linearGradient id="linear-gradient-5" x1="1965.13" y1="841.92" x2="2340.62" y2="841.92" xlink:href="#linear-gradient"/><linearGradient id="linear-gradient-6" x1="1965.13" y1="897.16" x2="2340.62" y2="897.16" xlink:href="#linear-gradient"/><linearGradient id="linear-gradient-7" x1="1965.13" y1="952.4" x2="2340.62" y2="952.4" xlink:href="#linear-gradient"/><linearGradient id="linear-gradient-8" x1="1965.13" y1="1007.64" x2="2340.62" y2="1007.64" xlink:href="#linear-gradient"/><linearGradient id="linear-gradient-9" x1="2369.38" y1="954.68" x2="2495.37" y2="954.68" xlink:href="#linear-gradient"/><linearGradient id="linear-gradient-10" x1="2525.94" y1="954.68" x2="2651.94" y2="954.68" xlink:href="#linear-gradient"/><linearGradient id="linear-gradient-11" x1="2682.51" y1="954.68" x2="2808.5" y2="954.68" xlink:href="#linear-gradient"/><linearGradient id="linear-gradient-12" x1="2369.38" y1="1025.34" x2="2495.37" y2="1025.34" xlink:href="#linear-gradient"/><linearGradient id="linear-gradient-13" x1="2525.94" y1="1025.34" x2="2651.94" y2="1025.34" xlink:href="#linear-gradient"/><linearGradient id="linear-gradient-14" x1="2682.51" y1="1025.34" x2="2808.5" y2="1025.34" xlink:href="#linear-gradient"/><linearGradient id="linear-gradient-15" x1="6668.73" y1="3052.27" x2="6196.71" y2="3565.7" gradientTransform="translate(-4973.95 -63.47) rotate(0.54)" gradientUnits="userSpaceOnUse"><stop offset="0" stop-color="#09005d"/><stop offset="1" stop-color="#1a0f91"/></linearGradient><linearGradient id="linear-gradient-16" x1="6515.52" y1="3090.4" x2="6557.45" y2="3090.4" gradientTransform="translate(-4973.95 -63.47) rotate(0.54)" gradientUnits="userSpaceOnUse"><stop offset="0" stop-color="#febbba"/><stop offset="1" stop-color="#ff928e"/></linearGradient><linearGradient id="linear-gradient-17" x1="6705.93" y1="2471.6" x2="6304.25" y2="3016.02" xlink:href="#linear-gradient-15"/><linearGradient id="linear-gradient-18" x1="6562.84" y1="2954.9" x2="6090.8" y2="3468.35" xlink:href="#linear-gradient-15"/><linearGradient id="linear-gradient-19" x1="6364.41" y1="3088.24" x2="6400.61" y2="3088.24" xlink:href="#linear-gradient-16"/><linearGradient id="linear-gradient-20" x1="6634.34" y1="2418.78" x2="6232.67" y2="2963.19" xlink:href="#linear-gradient-15"/><linearGradient id="linear-gradient-21" x1="5713.11" y1="3828.64" x2="5786.67" y2="3474.22" gradientTransform="matrix(-1, 0, 0, 1, 7569.66, 0)" gradientUnits="userSpaceOnUse"><stop offset="0" stop-color="#ff928e"/><stop offset="1" stop-color="#fe7062"/></linearGradient><linearGradient id="linear-gradient-22" x1="6688.1" y1="1996.54" x2="6902.31" y2="1996.54" xlink:href="#linear-gradient-16"/><linearGradient id="linear-gradient-23" x1="1900.57" y1="1954.51" x2="1925.09" y2="1791.79" gradientTransform="matrix(1, 0, 0, 1, 0, 0)" xlink:href="#linear-gradient-16"/><linearGradient id="linear-gradient-24" x1="6901.29" y1="1851.72" x2="6961.26" y2="1759.51" xlink:href="#linear-gradient-16"/><linearGradient id="linear-gradient-25" x1="5914.87" y1="3870.51" x2="5988.43" y2="3516.09" xlink:href="#linear-gradient-21"/><linearGradient id="linear-gradient-26" x1="6219.36" y1="2299.94" x2="6490.44" y2="2299.94" xlink:href="#linear-gradient-16"/><linearGradient id="linear-gradient-27" x1="6427.52" y1="2010.14" x2="6534.7" y2="2010.14" xlink:href="#linear-gradient-16"/><linearGradient id="linear-gradient-28" x1="-758.13" y1="3003.47" x2="-798.18" y2="2871.37" gradientTransform="matrix(0.75, -0.66, 0.66, 0.75, 159.45, -818.16)" xlink:href="#linear-gradient-16"/><linearGradient id="linear-gradient-29" x1="-794.26" y1="2773.3" x2="-760.76" y2="2964.39" gradientTransform="matrix(0.75, -0.66, 0.66, 0.75, 159.45, -818.16)" xlink:href="#linear-gradient-15"/><linearGradient id="linear-gradient-30" x1="-799.07" y1="3002.85" x2="-835.11" y2="2884" gradientTransform="matrix(0.75, -0.66, 0.66, 0.75, 159.45, -818.16)" xlink:href="#linear-gradient-16"/><linearGradient id="linear-gradient-31" x1="6272.99" y1="2123.3" x2="6422.57" y2="2746.56" gradientTransform="translate(-4705.66)" xlink:href="#linear-gradient-15"/><linearGradient id="linear-gradient-32" x1="6170.5" y1="2288.19" x2="6255.24" y2="2288.19" gradientTransform="translate(-4705.66)" xlink:href="#linear-gradient-16"/><linearGradient id="linear-gradient-33" x1="1521.65" y1="2188.07" x2="1703.5" y2="2188.07" xlink:href="#linear-gradient"/><linearGradient id="linear-gradient-34" x1="1273.62" y1="2839.14" x2="1228.48" y2="3151.03" xlink:href="#linear-gradient-2"/><linearGradient id="linear-gradient-35" x1="1154.58" y1="3107.04" x2="1199.29" y2="3107.04" gradientTransform="matrix(1, 0, 0, 1, 0, 0)" xlink:href="#linear-gradient-16"/><linearGradient id="linear-gradient-36" x1="1497.22" y1="2871.5" x2="1452.08" y2="3183.39" xlink:href="#linear-gradient-2"/><linearGradient id="linear-gradient-37" x1="1664.01" y1="2471.99" x2="1162.49" y2="2843.11" gradientTransform="matrix(1, 0, 0, 1, 0, 0)" xlink:href="#linear-gradient-15"/><linearGradient id="linear-gradient-38" x1="1366.32" y1="3110.8" x2="1419.69" y2="3110.8" gradientTransform="matrix(1, 0, 0, 1, 0, 0)" xlink:href="#linear-gradient-16"/><linearGradient id="linear-gradient-39" x1="1166.79" y1="2855.35" x2="1802.08" y2="2417.33" gradientTransform="matrix(1, 0, 0, 1, 0, 0)" xlink:href="#linear-gradient-15"/><linearGradient id="linear-gradient-40" x1="1069.87" y1="2358.75" x2="1096.18" y2="2292.4" gradientTransform="matrix(1, 0, 0, 1, 0, 0)" xlink:href="#linear-gradient-16"/><linearGradient id="linear-gradient-41" x1="1247.05" y1="2160.61" x2="1163.46" y2="2374.6" gradientTransform="matrix(1, 0, 0, 1, 0, 0)" xlink:href="#linear-gradient-21"/><linearGradient id="linear-gradient-42" x1="1093.21" y1="1866.75" x2="1068.13" y2="2684.22" gradientUnits="userSpaceOnUse"><stop offset="0" stop-color="#e1473d"/><stop offset="1" stop-color="#e9605a"/></linearGradient><linearGradient id="linear-gradient-43" x1="1294.66" y1="2616.79" x2="1417.94" y2="2616.79" gradientTransform="matrix(1, 0, 0, 1, 0, 0)" xlink:href="#linear-gradient-16"/><linearGradient id="linear-gradient-44" x1="3022.17" y1="2703.13" x2="2890.06" y2="2804.22" gradientTransform="translate(-2199 -61.38) rotate(-7.5)" xlink:href="#linear-gradient-16"/><linearGradient id="linear-gradient-45" x1="2929.35" y1="2623.34" x2="3048.98" y2="2777.36" gradientTransform="translate(-2199 -61.38) rotate(-7.5)" xlink:href="#linear-gradient-15"/><linearGradient id="linear-gradient-46" x1="3005.78" y1="2681.72" x2="2873.67" y2="2782.8" gradientTransform="translate(-2199 -61.38) rotate(-7.5)" xlink:href="#linear-gradient-16"/><linearGradient id="linear-gradient-47" x1="15574.02" y1="-17282.86" x2="15244.32" y2="-16964.11" gradientTransform="matrix(-1.39, -0.07, -0.07, 1.39, -4690.17, -570.62)" xlink:href="#linear-gradient-15"/><linearGradient id="linear-gradient-48" x1="12523.53" y1="-17454.13" x2="12193.85" y2="-17135.4" gradientTransform="matrix(0.65, -1.23, -1.23, -0.65, 8775.97, -5472.2)" xlink:href="#linear-gradient-15"/><linearGradient id="linear-gradient-49" x1="1940.2" y1="2921.8" x2="2124.91" y2="2921.8" gradientTransform="matrix(1, 0, 0, 1, 0, 0)" xlink:href="#linear-gradient-16"/><linearGradient id="linear-gradient-50" x1="2053.22" y1="3042.16" x2="2026.05" y2="3458.73" xlink:href="#linear-gradient-2"/><linearGradient id="linear-gradient-51" x1="1723.32" y1="2934.42" x2="2113.1" y2="2934.42" gradientTransform="matrix(1, 0, 0, 1, 0, 0)" xlink:href="#linear-gradient-16"/><linearGradient id="linear-gradient-52" x1="1963.82" y1="2731.08" x2="2400.49" y2="2731.08" gradientTransform="matrix(1, 0, 0, 1, 0, 0)" xlink:href="#linear-gradient-15"/><linearGradient id="linear-gradient-53" x1="1791.05" y1="3025.06" x2="1763.88" y2="3441.64" xlink:href="#linear-gradient-2"/><linearGradient id="linear-gradient-54" x1="2271.41" y1="2001.75" x2="2207.11" y2="2339.54" gradientTransform="matrix(1, 0, 0, 1, 0, 0)" xlink:href="#linear-gradient-15"/><linearGradient id="linear-gradient-55" x1="2700.99" y1="1361.19" x2="2453.56" y2="1963.04" gradientTransform="matrix(1, 0, 0, 1, 0, 0)" xlink:href="#linear-gradient-21"/><linearGradient id="linear-gradient-56" x1="2165" y1="2424.37" x2="2138.69" y2="2255.54" gradientTransform="matrix(1, 0, 0, 1, 0, 0)" xlink:href="#linear-gradient-16"/><linearGradient id="linear-gradient-57" x1="-483.91" y1="6013.73" x2="-311.7" y2="6130.71" gradientTransform="translate(-2477.41 -1773.67) rotate(-52.83)" xlink:href="#linear-gradient-16"/><linearGradient id="linear-gradient-58" x1="-369.03" y1="5873.81" x2="-433.33" y2="6211.61" gradientTransform="translate(-2477.41 -1773.67) rotate(-52.83)" xlink:href="#linear-gradient-15"/><linearGradient id="linear-gradient-59" x1="-473.59" y1="5998.53" x2="-301.37" y2="6115.51" gradientTransform="translate(-2477.41 -1773.67) rotate(-52.83)" xlink:href="#linear-gradient-16"/><linearGradient id="linear-gradient-60" x1="2273.05" y1="2616.06" x2="2639.2" y2="2616.06" gradientTransform="matrix(1, 0, 0, 1, 0, 0)" xlink:href="#linear-gradient-16"/><linearGradient id="linear-gradient-61" x1="2188.5" y1="2744.8" x2="1958.01" y2="2807.97" gradientTransform="translate(-41.47 -55.03) rotate(-2.83)" xlink:href="#linear-gradient-15"/><linearGradient id="linear-gradient-62" x1="1968.04" y1="2429.46" x2="1804.49" y2="2602.31" gradientTransform="matrix(1, 0, 0, 1, 0, 0)" xlink:href="#linear-gradient-15"/><linearGradient id="linear-gradient-63" x1="-9199.23" y1="3431.48" x2="-9196.81" y2="3687.47" gradientTransform="matrix(-1, 0, 0, 1, -6719.28, 0)" xlink:href="#linear-gradient-15"/><linearGradient id="linear-gradient-64" x1="-9260.93" y1="3145.61" x2="-9274.22" y2="3041.77" gradientTransform="matrix(-1, 0, 0, 1, -6719.28, 0)" xlink:href="#linear-gradient-16"/><linearGradient id="linear-gradient-65" x1="-9545.08" y1="3434.75" x2="-9542.67" y2="3690.73" gradientTransform="matrix(-1, 0, 0, 1, -6719.28, 0)" xlink:href="#linear-gradient-15"/><linearGradient id="linear-gradient-66" x1="-9551.24" y1="3181.2" x2="-9564.18" y2="3080.01" gradientTransform="matrix(-1, 0, 0, 1, -6719.28, 0)" xlink:href="#linear-gradient-16"/><linearGradient id="linear-gradient-67" x1="-9641.69" y1="2796.69" x2="-9243.3" y2="2796.69" gradientTransform="matrix(-1, 0, 0, 1, -6719.28, 0)" xlink:href="#linear-gradient-15"/><linearGradient id="linear-gradient-68" x1="3080.64" y1="1817.69" x2="2983.68" y2="1951.44" gradientTransform="matrix(1, 0, 0, 1, 0, 0)" xlink:href="#linear-gradient-21"/><linearGradient id="linear-gradient-69" x1="3087.19" y1="1640.13" x2="2542.18" y2="2298.82" xlink:href="#linear-gradient-42"/><linearGradient id="linear-gradient-70" x1="2854.2" y1="2332.72" x2="2558.31" y2="2648.68" gradientTransform="matrix(1, 0, 0, 1, 0, 0)" xlink:href="#linear-gradient-16"/><linearGradient id="linear-gradient-71" x1="-9286.24" y1="2289.19" x2="-8947.48" y2="2289.19" gradientTransform="matrix(-1, 0, 0, 1, -6719.28, 0)" xlink:href="#linear-gradient-16"/><linearGradient id="linear-gradient-72" x1="-9408.2" y1="2099.18" x2="-9290.3" y2="1978.22" gradientTransform="matrix(-1, 0, 0, 1, -6719.28, 0)" xlink:href="#linear-gradient-16"/><linearGradient id="linear-gradient-73" x1="-9237.22" y1="1902.01" x2="-9384.21" y2="2096.47" gradientTransform="matrix(-1, 0, 0, 1, -6719.28, 0)" xlink:href="#linear-gradient-16"/><linearGradient id="linear-gradient-74" x1="-9349.48" y1="1948.92" x2="-9173.9" y2="1948.92" gradientTransform="matrix(-1, 0, 0, 1, -6719.28, 0)" xlink:href="#linear-gradient-15"/><linearGradient id="linear-gradient-75" x1="-9452.5" y1="2056.01" x2="-9334.61" y2="1935.05" gradientTransform="matrix(-1, 0, 0, 1, -6719.28, 0)" xlink:href="#linear-gradient-16"/><linearGradient id="linear-gradient-76" x1="3194.87" y1="1729.23" x2="2649.86" y2="2387.91" xlink:href="#linear-gradient-42"/><linearGradient id="linear-gradient-77" x1="-2594.08" y1="-13643.71" x2="-2839.9" y2="-13045.77" gradientTransform="matrix(-1, 0, 0, 1, -6719.28, 0)" xlink:href="#linear-gradient-2"/><linearGradient id="linear-gradient-78" x1="1375.73" y1="852.02" x2="1511.21" y2="852.02" xlink:href="#linear-gradient"/><linearGradient id="linear-gradient-79" x1="1276" y1="850.94" x2="1609.09" y2="850.94" xlink:href="#linear-gradient"/><linearGradient id="linear-gradient-80" x1="1844.03" y1="1131.54" x2="1936.33" y2="1131.54" xlink:href="#linear-gradient"/><linearGradient id="linear-gradient-81" x1="1774.67" y1="1130.8" x2="2004.47" y2="1130.8" xlink:href="#linear-gradient"/></defs><g id="Background"><rect class="cls-1" width="3710" height="3710"/></g><g id="Illustration"><path class="cls-2" d="M3108.25,2335.9c-264.87,623.66-970.42,973-1582.28,878.8-99.56-15.34-372.51-61-614.17-276.53C446.59,2523.3,347.1,1701.79,722.37,1122.86c273.13-421.36,762.75-660.22,1228-648.27,100.21,2.57,484.26,18.43,821.78,296.74,49.57,40.88,158.91,138,257.45,292.11C3261,1425.3,3280.87,1929.45,3108.25,2335.9Z"/><path class="cls-3" d="M661.38,1359.58,847.24,1563c-116.3,87.73-189.25,259.88,5.43,464.59L590.94,2154.46C407.5,1833.24,433.44,1579.41,661.38,1359.58Z"/><path class="cls-4" d="M551.91,2080.67l180.32,2.9L764.61,1906c99,203.41,333.09,288.42,600.9,201.65L1500.74,2359C1114.22,2535.23,723,2444.8,551.91,2080.67Z"/><path class="cls-5" d="M2064.13,1811.93c146.17-288.93,532-395.5,809.39-237.28l281.2-93.08c-328.44-438.14-925.24-355-1296,82.82Z"/><path class="cls-6" d="M2712.84,2117.76l119.31,278.71c435.34-181.32,567.08-795.33,174-1065.84l2.87,180.58-185,38.49C3096.49,1678.94,2975.09,2045.2,2712.84,2117.76Z"/><path class="cls-4" d="M1935.76,2196.62c412.44,296.62,773.33,335.29,1061.08,99.59l-202.53-72,56.38-180.38c-252.54,175.27-487.24,118.24-712.54-61.22Z"/><path class="cls-4" d="M661.38,1359.58V1555l185.86,8c120.52-78.17,295-71.86,514.72-1.57l127.66-283C1155.8,1135.47,882.13,1169.6,661.38,1359.58Z"/><path class="cls-7" d="M1362,1561.45,1257.55,1344l232.07-65.53c150.75,78.62,272.16,174.92,369.12,286,106.72,235,253.2,435.65,436.38,521.26l-240.41,2.54,37,209.71c-94.19-56.41-185.1-119.72-265.08-188.75l-180.53-321C1583.16,1692.56,1495.34,1614.71,1362,1561.45Z"/><path class="cls-6" d="M1858.74,1564.39c-70.62,75.51-116.85,186.82-183.21,265.93-105.84,126.16-237.83,289.16-476,310.36L1394,2241.29l-115.76,189.82c388.43-77.2,660.21-330.57,785.92-619.18V1534.16Z"/><path class="cls-4" d="M1924.68,756.46l945.44-4.14a16.21,16.21,0,0,1,16.35,16.3l-2,330.93a16.19,16.19,0,0,1-16.67,16.1c-83.37-2.48-937.84-13.45-954.18-12.77-16.15.68-7.38-260.66-5-330.79A16.19,16.19,0,0,1,1924.68,756.46Z"/><path class="cls-1" d="M2868.27,1102.85h-.11c-53.28-1.59-563.88-8-809.27-11-71.74-.9-122.68-1.53-136.26-1.73h-1.26l-.22-1.25c-5.8-32.72-5.7-142.09.29-316.31a3.38,3.38,0,0,1,3.36-3.27l945.44-4.13a3.41,3.41,0,0,1,2.43,1,3.31,3.31,0,0,1,1,2.41l-2,330.94A3.38,3.38,0,0,1,2868.27,1102.85ZM1924,1087.06c15.28.21,65.32.83,135,1.7,245.4,3.06,756,9.44,809.32,11h.09c.1,0,.24-.15.24-.33l2-330.93-.35-1.87v1.54l-945.43,4.13a.32.32,0,0,0-.32.31C1918.59,944.47,1918.41,1053.07,1924,1087.06Z"/><path class="cls-8" d="M1965.13,841.92h0c0,9,3,16.2,6.67,16.2H2334c3.69,0,6.67-7.25,6.67-16.2h0c0-8.95-3-16.2-6.67-16.2H1971.8C1968.12,825.72,1965.13,833,1965.13,841.92Z"/><path class="cls-9" d="M1965.13,897.16h0c0,9,3,16.2,6.67,16.2H2334c3.69,0,6.67-7.25,6.67-16.2h0c0-8.95-3-16.2-6.67-16.2H1971.8C1968.12,881,1965.13,888.21,1965.13,897.16Z"/><path class="cls-10" d="M1965.13,952.4h0c0,9,3,16.2,6.67,16.2H2334c3.69,0,6.67-7.25,6.67-16.2h0c0-8.95-3-16.21-6.67-16.21H1971.8C1968.12,936.19,1965.13,943.45,1965.13,952.4Z"/><path class="cls-11" d="M1965.13,1007.64h0c0,9,3,16.2,6.67,16.2H2334c3.69,0,6.67-7.25,6.67-16.2h0c0-8.95-3-16.21-6.67-16.21H1971.8C1968.12,991.43,1965.13,998.69,1965.13,1007.64Z"/><circle class="cls-1" cx="2432.38" cy="853.34" r="63"/><circle class="cls-1" cx="2588.94" cy="853.34" r="63"/><circle class="cls-1" cx="2745.51" cy="855.4" r="63"/><path class="cls-4" d="M2469.81,840a40.47,40.47,0,1,1-37.43-25.09c.68,0,1.36,0,2,.05V804.73c-.68,0-1.36-.05-2-.05a50.67,50.67,0,1,0,46.84,31.25Z"/><path class="cls-4" d="M2609.81,889.63a40.46,40.46,0,1,1-21.56-74.7c.69,0,1.37,0,2,.05V804.73c-.67,0-1.35-.05-2-.05a50.72,50.72,0,1,0,26.65,93.87Z"/><path class="cls-4" d="M2779.27,878.15a40.47,40.47,0,1,1-33.46-63.22c.68,0,1.36,0,2,.05V804.73c-.68,0-1.36-.05-2-.05a50.72,50.72,0,1,0,41.77,79.48Z"/><g class="cls-12"><path class="cls-13" d="M2483.71,943H2381.05a11.67,11.67,0,1,0,0,23.33h102.66a11.67,11.67,0,0,0,0-23.33Z"/><path class="cls-14" d="M2640.27,943H2537.61a11.67,11.67,0,1,0,0,23.33h102.66a11.67,11.67,0,1,0,0-23.33Z"/><path class="cls-15" d="M2694.18,966.35h102.65a11.67,11.67,0,1,0,0-23.33H2694.18a11.67,11.67,0,1,0,0,23.33Z"/><rect class="cls-16" x="2369.38" y="979.31" width="125.99" height="92.04" rx="11.67"/><rect class="cls-17" x="2525.94" y="979.32" width="125.99" height="92.04" rx="11.67"/><rect class="cls-18" x="2682.51" y="979.32" width="125.99" height="92.04" rx="11.67"/></g><path class="cls-19" d="M1516.22,3089s-5.16,27.63-7.81,55a18.88,18.88,0,0,0,17.86,20.63c36.46,1.86,114.47,5.56,142.49,4.58a6.14,6.14,0,0,0,5.48-8.36h0a13.75,13.75,0,0,0-7-7.48l-128.34-60.47Z"/><path class="cls-20" d="M1512.37,3072.67l3.61,33.14s22.48,10.73,38-1l-9-37Z"/><path class="cls-21" d="M1521.26,2450.36c-1.78,8.63-13.23,431.3,30.15,621.17a6.44,6.44,0,0,1-3.84,7.45,112.31,112.31,0,0,1-36.87,7.13,11.07,11.07,0,0,1-10.91-8.06c-12.5-44.08-72.29-264.89-78.36-475.34-6.78-235.15.08-8,.08-8l6.67-145.26Z"/><path class="cls-22" d="M1367.8,3102s-7.92,13.89-15.81,50.95a11.51,11.51,0,0,0,10,13.88c12,1.3,30.56,3,45.42,3a11.48,11.48,0,0,0,11.49-12.7c-1.52-13.56-6.43-35.85-22.1-53.32Z"/><path class="cls-23" d="M1361.37,3059.35l8.7,50.15s9,6.84,27,2.12l-3.87-53.91Z"/><path class="cls-24" d="M1342.28,2461.62c-39.09,222.69,2.75,551.35,17.31,615.73a10,10,0,0,0,8,7.69c6.76,1.19,17.89,2.21,28.91-.88a9.19,9.19,0,0,0,6.69-8.39c2.53-51.92,1.91-370.8,37.54-496.48a28.68,28.68,0,0,1,11.19-15.69l67.3-46.87,5.85-76.76Z"/><path class="cls-25" d="M1581.8,2041.25c-110.73-2.89-233.23,26.86-233.23,26.86-34.86,192.32-9.73,414.77-9.73,414.77,85.53,23.3,182.59-12,182.59-12,15-80.38,83.68-306.35,83.68-306.35,54.18-6.2,98.9-21.38,135.81-41.67-27.69-32.73-40.5-74.16-46-98.63C1655.65,2036,1616,2042.14,1581.8,2041.25Z"/><path class="cls-26" d="M1910.51,1881.23c-10.75-13.24-24.58-7.16-24.58-7.16-17,68.7-103,123.7-191,150.15,5.5,24.47,18.31,65.9,46,98.63C1887.41,2042.31,1910.51,1881.23,1910.51,1881.23Z"/><path class="cls-27" d="M1907.84,1884.55c1.1,3.63-12.13,9-19.75-5.86-.21-7.1-4.23-37.53.06-43.27,22.87-30.56,67-68.73,67-68.73,7.33,7.37,1.17,14.48,1.17,14.48l-21.45,21.92c4.37,8.07,9.72,14.9,12.17,24.63a29.76,29.76,0,0,1-3.18,21.87c-3.79,6.68-9,15.36-13.83,22.14C1920.82,1884.58,1907.84,1884.55,1907.84,1884.55Z"/><path class="cls-28" d="M1925.46,1817.35,1906,1833.57l-6.23,16.28,17.07,19.3s6.11-32.35,10.49-39.32S1929.45,1819.44,1925.46,1817.35Z"/><path class="cls-29" d="M1390,2175.76l-41.45-107.65s-104.13,69.3-122,158.26c19.53,1.63,55.05,7.05,89.7,25C1324.34,2209.32,1390,2175.76,1390,2175.76Z"/><path class="cls-30" d="M1479.47,2277.53s-116.78,64.54-155.44,8.11c-8-11.72-9.86-23.3-7.75-34.31-34.65-17.91-70.17-23.33-89.7-25-5.39,26.82-2.95,55.42,12.57,84.45,67.45,126.23,255.41-4.5,255.41-4.5Z"/><path class="cls-31" d="M1470.48,1950.26l-36.22,101.58a3.68,3.68,0,0,0,1.63,4.44c9.56,5.4,44,21.08,86-5A17.32,17.32,0,0,0,1530,2039l12.26-88.09Z"/><path class="cls-32" d="M1548.05,1856.62s38,73.21,32.77,102.59-53.18,26.81-94.84,2.51l-28.51-78.93Z"/><path class="cls-33" d="M1488.2,1923.11a3,3,0,0,0,1.36-4.38c-3.06-4.77-8.78-14.48-10.55-23,0,0-6.92-4.52,17.8-10.19s61.59-14.48,69.52-35.4c7.73-20.4-11.58-72.06-43.57-31.35a3,3,0,0,1-4.75,0c-5.12-6.79-18.6-20.91-37.59-12.61-17.77,7.77-19.88,20.72-19.7,27.25a3,3,0,0,1-3.57,3c-8.93-1.8-30.38-3.47-40.61,18.46-8.42,18.06-3.15,28.37,1.68,33.44a3,3,0,0,1-1.33,5c-5.89,1.74-13.53,6.66-12.9,20.44.87,19,22.17,17.57,28.24,16.76a3,3,0,0,1,2.66,1c5.14,5.8,28.32,30.44,53.63,33.63a3,3,0,0,0,3.22-4l-10.66-32a3,3,0,0,1,1.66-3.72Z"/><path class="cls-34" d="M1492.57,1927.68s-27.37-19.17-29.54-3.27,24.59,23.3,37.94,17.49Z"/><path class="cls-35" d="M1455.6,2379.52l63.61-222.15a6.49,6.49,0,0,1,5.48-4.66c11.53-1.35,44.93-5.12,83.48-8.39,46.45-3.92,100.39-7.11,132.62-4.4a6.49,6.49,0,0,1,5.31,9.35c-18.32,37.09-93.72,187.93-131.47,237.34a6.51,6.51,0,0,1-5.25,2.57l-147.59-1.37A6.5,6.5,0,0,1,1455.6,2379.52Z"/><path class="cls-36" d="M1471,2325.85s-8.86-36.44-5.29-49.37,10.5-29.54,33.59-25.85,50.31,13.42,50.31,13.42-1.37,16.84-18.92,11.4l10.88,8.42s-1.55,13.48-16.37,6.28l10.12,11.17s-6.37,11.07-17.27,4S1501.89,2330.24,1471,2325.85Z"/><path class="cls-6" d="M1603.93,2210.64a18.68,18.68,0,1,0,18.68-18.67A18.67,18.67,0,0,0,1603.93,2210.64Z"/><path class="cls-37" d="M1526.41,2223l-4.76-1.41,12.95-43.93a20,20,0,0,1,15.07-14c41-8.57,149.18-10.32,153.76-10.39l.07,5c-1.11,0-112.23,1.81-152.81,10.28a15.1,15.1,0,0,0-11.33,10.58Z"/><path class="cls-4" d="M773.56,2844.65c-6.78,10-33.73,237.22-37.95,321.13a9.93,9.93,0,0,0,9.94,10.4h0a9.94,9.94,0,0,0,9.82-8.41l49.3-315.89Z"/><path class="cls-4" d="M990.25,2844.65c6.78,10,33.73,237.22,38,321.13a9.93,9.93,0,0,1-9.94,10.4h0a9.94,9.94,0,0,1-9.82-8.41l-49.3-315.89Z"/><path class="cls-4" d="M732.8,2826.92l0,2.48c-.16,17.82,15.19,32.44,34.42,32.77L995,2866c19,.32,34.74-13.37,35.66-30.92l.12-2.26c1-18.3-14.58-33.72-34.34-34.07l-228-4.09C749,2794.35,733,2808.83,732.8,2826.92Z"/><path class="cls-4" d="M1212.77,3157.52c-40.51,0-58.43-3.47-66.44-6.64a15.37,15.37,0,0,0,15,11.9h143.29a7,7,0,0,0,6.72-8.8C1295,3155.3,1260.28,3157.52,1212.77,3157.52Z"/><path class="cls-38" d="M1311.31,3154a7,7,0,0,0-1.18-2.44c-10.91-13.93-32.84-35.82-62.66-35.4-43.7.62-58.93,5.36-92.89.27l-8,26.55a15.27,15.27,0,0,0-.24,7.92c8,3.17,25.93,6.64,66.44,6.64C1260.28,3157.52,1295,3155.3,1311.31,3154Z"/><path class="cls-39" d="M1164.42,3087.8l-9.84,33.44s21.79,9.91,41,2l3.76-29Z"/><path class="cls-4" d="M1461.4,3136.46c-31.58,25.37-47.71,33.9-55.93,36.46a15.35,15.35,0,0,0,19.09-.14L1536.25,3083a6.94,6.94,0,0,0-.24-11C1524.09,3083.25,1498.44,3106.7,1461.4,3136.46Z"/><path class="cls-40" d="M1536,3072a6.81,6.81,0,0,0-2.44-1.16c-17.2-4-47.93-7.22-70.92,11.79-33.68,27.84-42.6,41.06-72.24,58.38l10.31,25.62a15,15,0,0,0,4.75,6.29c8.22-2.56,24.35-11.09,55.93-36.46C1498.44,3106.7,1524.09,3083.25,1536,3072Z"/><path class="cls-41" d="M954.08,2706.8s242.5,19.8,292.24,43.22-40.59,351.63-40.59,351.63-13.54,6.52-43.68-2.85c0,0,30.9-242.21,7.91-294.73L907.4,2761.13Z"/><path class="cls-42" d="M1366.32,3094.9c2.25,2.06,24.09,46.11,24.09,46.11s24.32-5.26,29.28-20.65l-21.88-39.76Z"/><path class="cls-43" d="M808,2704.77a122.92,122.92,0,0,0-7.58,44.29c.45,34.94,28.54,63.3,63.45,65l286.66,13.08a13.74,13.74,0,0,1,12.7,10.33c6.73,26.06,39.66,106.07,200.61,265.74a13,13,0,0,0,16.06,1.75l22.91-14.48a5.27,5.27,0,0,0,1.73-7.12l-166.91-285a64.58,64.58,0,0,0-39.25-29.11L954.08,2706.8Z"/><path class="cls-44" d="M1090.54,2259.53s-30.71,54.3-62,80.61l64.72,36.1s14.58-57.48,47.9-74.31Z"/><path class="cls-45" d="M802.82,2706.8s77.39,18.86,151.26,0c0,0,103.37-139,143.36-176.77,0,0,63.78,100.66,205.76,114.92l7.92-17.69s-113-52.11-147.83-132.17-48.77-114.2-80.43-135.09c-19.71-13-31.52-21.89-37.62-26.75a10.13,10.13,0,0,0-11.59-.73C1000.05,2353,842,2461.26,802.82,2706.8Z"/><path class="cls-46" d="M1093.24,2528.07a5,5,0,0,1-3.94-1.94c-24.65-32.13-38.37-67.56-39-69a5,5,0,1,1,9.27-3.56c.14.35,13.82,35.6,37.56,66.56a5,5,0,0,1-3.94,8Z"/><path class="cls-47" d="M1294.66,2618l16-4.26,48.52-11.24a22.49,22.49,0,0,1,17.06,2.88l41.72,26.24-115.21-.19Z"/><path class="cls-48" d="M1139.3,2178.12s29.84,49.61,35,77,13.49,44.56-17.71,54.33-60.21-2.6-78.42-28.19c0,0-28.42-39.39-25.59-57.43S1139.3,2178.12,1139.3,2178.12Z"/><path class="cls-49" d="M1086.5,2260.07l4-.54s-21.13-31.93-7.31-39.85,70.18-27.36,80-49.55c9.43-21.39-4.68-45.56-21.69-50.61a2.18,2.18,0,0,0-2.61,1.37l-1,2.7a2.18,2.18,0,0,1-4.05.11h0a2.18,2.18,0,0,0-4-.08c-3,6.65-12.05,18-39.15,26.79-38.45,12.47-62.4,31.85-59.46,59.17a2.19,2.19,0,0,1-3.12,2.22c-3.14-1.39-7.91-1.61-13.44,4.44-9.62,10.53-2.09,33.55,24.19,49.84a2.18,2.18,0,0,1,.36,3.49c-3.93,3.37-9.46,10.87,8.32,17.56,18.18,6.85,28.11,4.53,31.78,3.06a2.19,2.19,0,0,0,1.34-2.46l-4.67-23.94a2.19,2.19,0,0,1,1.86-2.59Z"/><path class="cls-50" d="M1088.16,2265s-13.17-32.47-27-21.06,12.78,36.64,25.07,36.3Z"/><path class="cls-51" d="M1250.15,2654.24l.57,0,246.13-.25a11,11,0,1,0,0-22l-246.13.25a11,11,0,0,0-.54,22Z"/><path class="cls-52" d="M1592.17,2413.2c-.09.17-.17.34-.25.51L1488.36,2637a11,11,0,1,0,20,9.25L1611.87,2423a11,11,0,0,0-19.7-9.76Z"/><rect class="cls-4" x="2210.71" y="2878.64" width="25.98" height="280.94"/><path class="cls-4" d="M2337.46,3165H2109.94a16.91,16.91,0,0,1,16.91-16.91h193.7a16.91,16.91,0,0,1,16.91,16.91Z"/><rect class="cls-4" x="2085.16" y="2815.7" width="286.07" height="81.13" rx="27.94"/><path class="cls-53" d="M2031.92,2691.32s-38.6,6-82,35a21.64,21.64,0,0,0-9.55,20.68c5.2,41.16,26.56,174.4,97,304.54a32.73,32.73,0,0,1,3.15,22.48l-12.24,57-22.71,21.28h58.48L2103,3046.91l-16.65-5.26a31.5,31.5,0,0,1-22-29.49l-2-113c1.67-50.36-30.87-85.1-30.87-85.1l93.38-4.54Z"/><path class="cls-54" d="M1982.76,3162.55c-5.32,7,57.32,16.17,89,.92,0,0,43.88-76.33,43.88-115.63,0,0-3.49-8-29.25-6.19,0,0-14.73,90.38-30.28,100.5s-43.52,1-43.52,1S1990.62,3152.27,1982.76,3162.55Z"/><path class="cls-55" d="M2113.1,2815.7c-.5-.86-100.55-12-100.55-12s3.28,30.41-7,72.29-157.12,223.3-157.12,223.3l15.4,48.82c-47.62,16.59-94.46,19.24-140.55,8.46l95.45-57.28s89.33-304.42,144-358.73l100.28-34.7Z"/><path class="cls-56" d="M2337.46,2638.56s57.65,85.74,62.38,124.84-15.79,55-76.27,57.62-221.94,2.58-221.94,2.58l-137.81-117.77s100.43-35.83,126.54-46S2337.46,2638.56,2337.46,2638.56Z"/><path class="cls-57" d="M1858.05,3131.64s16.59,16.06,5.38,33.93c0,0-131.35,23.28-167,12.72,0,0,7.41-16.9,47.57-36.14l-3,2.27a4.8,4.8,0,0,0,3.16,8.61C1770.65,3151.52,1825.41,3146.67,1858.05,3131.64Z"/><path class="cls-58" d="M2087.78,2094.85c117.83-20,173.3,76.07,169.25,96.26a3.69,3.69,0,0,0,4.62,4.23c13.53-3.64,43.42-8.23,61.94,15,16.35,20.5,4.13,39.84-5.83,50.45a3.72,3.72,0,0,0,3.1,6.29c24.87-3.14,78.91-3.89,87.76,46.73,8.24,47.21-24.62,60.52-44.11,64.28a3.7,3.7,0,0,0-1.23,6.77c9.72,6.16,21,18.91,16.44,44.06-7.14,39.42-84.43,36.2-93.46,35.68a3.67,3.67,0,0,1-1.61-.48l-123.8-70.61a3.67,3.67,0,0,1-1.82-2.59l-25-144.34a3.74,3.74,0,0,1,1-3.22l-80.71-113.89C2025,2125.14,2086.39,2095.09,2087.78,2094.85Z"/><path class="cls-59" d="M2181.58,2627.21s-67.12-63.91-100.16-106.25a89.81,89.81,0,0,1-15.21-80.83c15.08-50.83,41.89-103.46,44.33-111.66,3.75-12.55,79-12,79-12s148.11,96.12,206.3,258.94l-65.35,20.34s-38.67-64.87-76.88-106.12c0,0,66.11,87.34,68.44,123.09Z"/><path class="cls-60" d="M2101.44,2258.29c.79,2.61,20.43,67.74,22,69.09s43.08,3.58,62.63-9.78l-48.5-94.88Z"/><path class="cls-61" d="M2022.69,2174.62s-9.49,37.3,16.77,87.48,56,50.12,72.26,34.06,36.29-43.31,31.53-91.82S2036.4,2127.16,2022.69,2174.62Z"/><path class="cls-62" d="M2106.92,2207s-43.58-66.62-84.44-14.19l-.74,19.07s-47.86-5.68-39.49-49.56,49.75-71.32,103-52.31,83.79,38.5,87.23,76.68-26.93,29.8-26.93,29.8-9.91-26.88-24-29.67-10.43,18.16-10.43,18.16Z"/><path class="cls-63" d="M2118.08,2206.08s-22.6-34.12.56-39.2,19.56,33.24,17.06,47.41Z"/><path class="cls-64" d="M2044.83,2632l49.32-47.54,68.22,28.82s67.91,10.53,106.78,0l38.87-10.52,87.83-27.34,13.79,39a23.49,23.49,0,0,1-8.57,27c-7.6,5.4-16.51,11.34-22.19,13.82-11.56,5.06-285.12-3.5-285.12-3.5Z"/><path class="cls-65" d="M2231.46,2654.37h-.65l-286.08-.31a12.81,12.81,0,1,1,0-25.61l286.07.31a12.81,12.81,0,0,1,.63,25.6Z"/><path class="cls-66" d="M1687.56,2394.63h238.25a45.39,45.39,0,0,1,41.06,26L2077,2654.21H1780.94a27.61,27.61,0,0,1-25.67-17.45l-85.41-216.11A19,19,0,0,1,1687.56,2394.63Z"/><path class="cls-6" d="M1855.41,2514.37c5.16,16,1.34,31.62-8.52,34.8s-22.06-7.25-27.22-23.29-1.35-31.62,8.52-34.8S1850.24,2498.33,1855.41,2514.37Z"/><path class="cls-67" d="M2557.62,3129.58a347.79,347.79,0,0,1,4.18,36.47,15.69,15.69,0,0,1-14.15,16.57c-29.28,2.84-95.93,8.09-138.49,2a7.15,7.15,0,0,1-3.93-12.29c17.55-16.35,59.93-48.16,129.69-55.11Z"/><path class="cls-68" d="M2572.17,3092l-14.8,36.29a12.12,12.12,0,0,1-12.42,7.51,66,66,0,0,1-12.09-2.35,15.88,15.88,0,0,1-10.57-19.75l11.18-37.38Z"/><path class="cls-69" d="M2825.28,3158.49s-29.64,24.8-41.19,56.62c-3.18,8.75,3.54,18,12.85,18h61a14.39,14.39,0,0,0,14.22-16.83C2868.28,3194.28,2857.07,3158.58,2825.28,3158.49Z"/><path class="cls-70" d="M2862,3126.2s-6,26.51-10.59,44a5.61,5.61,0,0,1-7.33,3.82c-9.23-3.3-16.74-4.76-22.2-4a4.31,4.31,0,0,1-4.76-4.3l-.58-44Z"/><path class="cls-71" d="M2704.34,2529.79,2524,3079.91s34.59,22.65,51.06,21.71l214.18-442.11s37.48,272.41,19.32,468l61.35,4.68s99.75-499.78,24.2-671Z"/><path class="cls-6" d="M2788.11,2654.76l.22,0a1.75,1.75,0,0,0,1.51-1.95l-7-55.54a1.74,1.74,0,0,0-3.46.44l7,55.54A1.76,1.76,0,0,0,2788.11,2654.76Z"/><path class="cls-72" d="M2670.53,2045.72s146.1,13,125.43,117.07c0,0,80.76,152,118.52,331a10.54,10.54,0,0,1-8.55,12.52L2662.64,2548a13.08,13.08,0,0,1-14.89-9.63l-58.14-224.66L2567,2418.12l-72-18.75,60.6-306.94S2564,2047.64,2670.53,2045.72Z"/><path class="cls-73" d="M2588.38,2303.62a2.58,2.58,0,0,0,.38,0,1.82,1.82,0,0,0,1.39-2.16l-20.28-93.12a1.81,1.81,0,1,0-3.54.77l20.28,93.12A1.81,1.81,0,0,0,2588.38,2303.62Z"/><path class="cls-74" d="M2603.06,2580.72a34.79,34.79,0,0,1,25.13-3.27l16.92,4.22a6.14,6.14,0,0,0,7.58-5.27l17.52-155.92c21.9,10.41,53.5,9.16,63.92,8.4l-40.32,183.81H2552.73Z"/><path class="cls-75" d="M2228.2,2242.52l4.26-14.17a28,28,0,0,1,16.39-17.93l77.12-31s1.17-9.89-16.29-16.61-13.38-26.28-13.38-26.28,23.85,10.88,58.77,28.14c20,9.87,31.18,27.3,37.12,40.42l174.77,213-20.52,14.1a54.78,54.78,0,0,1-79.42-19.49l-94.68-181.55C2324.81,2245.46,2276.71,2248.19,2228.2,2242.52Z"/><path class="cls-76" d="M2623.2,1946.33l44.94,125.76s-39.79,31.11-68.83,20.59l-22.64-72.09S2594,1932.48,2623.2,1946.33Z"/><path class="cls-77" d="M2489.1,1901.16c0,1.94,43.28,122.54,43.28,122.54l68.33-26.18-24-120.4S2489.1,1868.72,2489.1,1901.16Z"/><path class="cls-78" d="M2564.68,1906.45l17.62,62.39a9.16,9.16,0,0,1,.35,2.44c0,5.09-1.26,22.59-19.09,20.21-16.18-2.16-31-3.89-40.4.54a9.06,9.06,0,0,0-4.67,11.25c3.94,11,13.26,35.48,24.62,55.55a9,9,0,0,0,11.61,3.72c12.84-5.84,39.56-18.91,58.59-34.46a9.07,9.07,0,0,0,3.21-8.7c-3-16-11.92-64.49-12.31-78.4-.37-13.06,14.28-23,20.73-26.77a8.93,8.93,0,0,0,4.19-5.63c2-8.41,3.75-27.43-20.52-31.62a9.07,9.07,0,0,1-7.35-10.78c2-10,1.39-24.85-17.69-30.29-19.4-5.54-31.61,6.14-37.82,15.09a9.06,9.06,0,0,1-11.23,3c-2.29-1-5.05-1.07-8,1.44a8.92,8.92,0,0,1-13-2c-5.65-8.32-15.93-16.63-33.33-11-30.87,10-29.39,45.59-18.08,64.94s44.18,6.61,59.73-6.21c11.83-9.75,29.83-3.91,37.78-.56A9,9,0,0,1,2564.68,1906.45Z"/><path class="cls-79" d="M2610.4,1963.76s-18.27-34.56-6.19-45.41,32.55-9.08,32,18C2635.53,1969.92,2610.4,1963.76,2610.4,1963.76Z"/><path class="cls-80" d="M2720,2431.22a177.31,177.31,0,0,0,17.86-.84l1.3-.15,53.2-248a1.82,1.82,0,0,0-3.55-.76l-52.64,245.45c-7.92.69-50.2,3.5-72.51-12.31l46.08-215.49-9.62-18.12a1.81,1.81,0,0,0-3.2,1.7l9,17-46.29,216.48.92.69C2676.63,2428.93,2702.6,2431.22,2720,2431.22Z"/><path class="cls-6" d="M1125.14,3187.42a8.54,8.54,0,0,1-3.65-.82c-4.71-2.21-6.88-8.16-4.86-13.29L1311,2680.07c2-5.13,7.47-7.5,12.17-5.3s6.88,8.16,4.86,13.3l-194.4,493.23A9.27,9.27,0,0,1,1125.14,3187.42Z"/><path class="cls-6" d="M1344.14,3187.42a9.27,9.27,0,0,1-8.52-6.12l-194.4-493.23c-2-5.14.15-11.09,4.86-13.3s10.15.17,12.17,5.3l194.4,493.24c2,5.13-.15,11.08-4.86,13.29A8.54,8.54,0,0,1,1344.14,3187.42Z"/><path class="cls-6" d="M2444.44,3187.42a8.58,8.58,0,0,1-3.66-.82c-4.7-2.21-6.88-8.16-4.85-13.29l194.39-493.24c2-5.13,7.47-7.5,12.18-5.3s6.87,8.16,4.85,13.3L2453,3181.3A9.28,9.28,0,0,1,2444.44,3187.42Z"/><path class="cls-6" d="M2663.43,3187.42a9.28,9.28,0,0,1-8.52-6.12l-194.39-493.23c-2-5.14.15-11.09,4.85-13.3s10.15.17,12.17,5.3l194.4,493.24c2,5.13-.15,11.08-4.85,13.29A8.61,8.61,0,0,1,2663.43,3187.42Z"/><path class="cls-81" d="M2416.23,2645.23h281.55v-29.05H2416.23C2422.26,2616.18,2422.26,2645.23,2416.23,2645.23Z"/><path class="cls-82" d="M2694.44,2645.23a3.35,3.35,0,0,0,3.34-3.34v-22.37a3.35,3.35,0,0,0-3.34-3.34H2411a3.29,3.29,0,1,1,0-6.57H2713.9a12.15,12.15,0,0,1,12.16,12.16v18.57a11.46,11.46,0,0,1-11.46,11.46H2411a3.29,3.29,0,1,1,0-6.57Z"/><path class="cls-6" d="M2738.59,2664.82c.95-3.24-.34-6.6-3.51-9.15s-7.89-4-12.87-4h-1687c-6.55,0-12.65,2.21-16.17,5.87s-4,8.26-1.26,12.21L1036,2696c4.19,6,13.26,9.86,23.24,9.86H2710.64c9.28,0,17.26-4.37,19-10.41Z"/><g class="cls-83"><path class="cls-81" d="M1817.87,943.59a9.87,9.87,0,0,1-7.66-11.68c2.16-10.38,3.9-21,5.17-31.57a9.88,9.88,0,0,1,10.8-8.65l.19,0a9.86,9.86,0,0,1,8.62,11c-1.34,11.13-3.17,22.31-5.45,33.24a9.87,9.87,0,0,1-10.65,7.81C1818.55,943.71,1818.21,943.66,1817.87,943.59Zm.18-95.16c-.17-10.64-.81-21.38-1.89-31.92a9.88,9.88,0,1,1,19.65-2c1.13,11.09,1.8,22.4,2,33.6a9.88,9.88,0,0,1-9.71,10,9.24,9.24,0,0,1-1.18,0A9.89,9.89,0,0,1,1818.05,848.43Zm-10.75-83.11c-2.54-10.31-5.55-20.63-9-30.69a9.87,9.87,0,1,1,18.7-6.35c3.6,10.59,6.78,21.47,9.45,32.32a9.9,9.9,0,0,1-7.23,12,10.1,10.1,0,0,1-3.36.23A9.86,9.86,0,0,1,1807.3,765.32Zm-29.07-78.61c-4.79-9.5-10-18.89-15.61-27.93a9.87,9.87,0,1,1,16.81-10.36c5.87,9.51,11.4,19.41,16.43,29.4a9.87,9.87,0,1,1-17.63,8.89Zm-45.87-70.18c-6.75-8.17-13.95-16.18-21.41-23.78a9.88,9.88,0,1,1,14.11-13.82c7.84,8,15.42,16.42,22.53,25a9.88,9.88,0,1,1-15.23,12.58Zm-60.24-58.28c-8.41-6.49-17.2-12.7-26.14-18.45a9.88,9.88,0,0,1,10.7-16.61c9.4,6.06,18.65,12.59,27.5,19.42a9.87,9.87,0,0,1-7,17.64A9.77,9.77,0,0,1,1672.12,558.25Zm-361-64.5a9.88,9.88,0,0,1,6.2-12.52c10.58-3.57,21.47-6.73,32.35-9.39a9.88,9.88,0,0,1,4.69,19.19c-10.34,2.52-20.67,5.52-30.72,8.92a9.88,9.88,0,0,1-12.52-6.2Zm289.38,21c-9.63-4.46-19.58-8.55-29.56-12.15a9.88,9.88,0,0,1,6.71-18.58c10.52,3.8,21,8.11,31.14,12.8a9.88,9.88,0,0,1-5.14,18.79A10.07,10.07,0,0,1,1600.49,514.8Zm-205.74-41.38a9.87,9.87,0,0,1,8.84-10.81c11.12-1.11,22.43-1.76,33.62-1.93a9.88,9.88,0,0,1,.3,19.75c-10.64.16-21.39.78-32,1.84a10.17,10.17,0,0,1-2,0A9.86,9.86,0,0,1,1394.75,473.42Zm126.22,15c-10.38-2.19-21-3.95-31.55-5.24a9.88,9.88,0,0,1,2.19-19.63l.21,0c11.11,1.36,22.28,3.22,33.21,5.51a9.88,9.88,0,0,1-3,19.5C1521.67,488.57,1521.32,488.52,1521,488.45Z"/><path class="cls-81" d="M1256.05,528.46a9.92,9.92,0,0,0,5.78-1.19c4.45-2.48,9-4.89,13.61-7.2a9.87,9.87,0,1,0-8.88-17.64c-4.82,2.42-9.63,5-14.31,7.57a9.87,9.87,0,0,0,3.8,18.46Z"/></g><g class="cls-83"><path class="cls-81" d="M1070.78,765.78a9.88,9.88,0,0,0,10.53-7.29c1.31-4.92,2.74-9.89,4.26-14.78a9.88,9.88,0,0,0-18.87-5.86c-1.59,5.15-3.1,10.39-4.48,15.57a9.88,9.88,0,0,0,7,12.08A9.17,9.17,0,0,0,1070.78,765.78Z"/><path class="cls-81" d="M1384,1245.05a9.88,9.88,0,1,1,3-19.53c10.27,1.55,20.76,2.69,31.3,3.4a9.88,9.88,0,0,1-1.32,19.71q-6.85-.47-13.64-1.15C1396.86,1246.83,1390.37,1246,1384,1245.05Zm76.22-5.63a9.88,9.88,0,0,1,9.18-10.53c10.44-.72,21-1.88,31.29-3.47a9.87,9.87,0,0,1,3,19.52c-10.87,1.67-22,2.9-32.94,3.65a10.43,10.43,0,0,1-1.68,0A9.88,9.88,0,0,1,1460.24,1239.42Zm-128.76-6c-10.53-3.11-21.08-6.71-31.35-10.71a9.88,9.88,0,0,1,7.17-18.41c9.75,3.8,19.77,7.22,29.77,10.18a9.87,9.87,0,0,1-3.77,19.29A9.74,9.74,0,0,1,1331.48,1233.39ZM1544,1226.5a9.86,9.86,0,0,1,6.64-12.28c10-3,20-6.45,29.75-10.26a9.87,9.87,0,1,1,7.22,18.38c-10.24,4-20.78,7.66-31.33,10.8a9.84,9.84,0,0,1-12.28-6.64Zm-292.47-26.75c-9.59-5.34-19.08-11.18-28.22-17.34a9.88,9.88,0,0,1,11-16.38c8.68,5.85,17.7,11.4,26.8,16.47a9.88,9.88,0,1,1-9.62,17.25Zm-70.68-50.36c-8.21-7.34-16.2-15.1-23.76-23.08a9.87,9.87,0,0,1,14.34-13.58c7.18,7.58,14.78,15,22.58,21.93a9.88,9.88,0,0,1-13.16,14.73Zm-58-64.58c-6.42-9-12.53-18.27-18.17-27.7a9.88,9.88,0,1,1,17-10.14c5.36,9,11.17,17.82,17.27,26.33a9.88,9.88,0,1,1-16,11.51Zm-42.56-75.69c-4.31-10.14-8.23-20.58-11.66-31a9.87,9.87,0,1,1,18.76-6.16c3.26,9.92,7,19.83,11.08,29.46a9.88,9.88,0,0,1-18.18,7.73Zm-24.9-83.25c-2-10.81-3.49-21.84-4.54-32.81a9.88,9.88,0,0,1,19.67-1.88c1,10.42,2.44,20.9,4.3,31.17a9.87,9.87,0,1,1-19.43,3.52Zm-6-86.58c.32-8.09.9-16.27,1.71-24.31.3-2.92.62-5.82,1-8.71a9.77,9.77,0,0,1,11-8.59,9.88,9.88,0,0,1,8.59,11c-.33,2.75-.65,5.51-.93,8.27-.77,7.65-1.32,15.42-1.63,23.12a9.87,9.87,0,0,1-10.26,9.47l-.61,0A9.88,9.88,0,0,1,1049.3,839.29Z"/><path class="cls-81" d="M1630.59,1200.35a9.73,9.73,0,0,0,5.82-1.22c4.67-2.61,9.36-5.38,14-8.22A9.88,9.88,0,0,0,1640,1174.1c-4.36,2.7-8.82,5.33-13.25,7.81a9.88,9.88,0,0,0,3.85,18.44Z"/></g><path class="cls-81" d="M1676.51,1037.39a4.62,4.62,0,0,0,.89-5.28l-24.61-50.5a244.86,244.86,0,0,0,30.36-73.24l53.07-18.31a4.61,4.61,0,0,0,3.11-4.36V818.32a4.6,4.6,0,0,0-3.11-4.37l-53.07-18.29a244.78,244.78,0,0,0-30.37-73.24l24.6-50.5a4.63,4.63,0,0,0-.89-5.29L1628.83,619a4.63,4.63,0,0,0-5.29-.89l-50.49,24.61a245,245,0,0,0-73.24-30.36l-18.31-53.07a4.61,4.61,0,0,0-4.36-3.11h-67.39a4.61,4.61,0,0,0-4.36,3.11l-18.3,53.07a244.83,244.83,0,0,0-73.23,30.37l-50.51-24.6a4.62,4.62,0,0,0-5.28.89l-47.64,47.65a4.62,4.62,0,0,0-.89,5.29l24.61,50.5a244.76,244.76,0,0,0-30.36,73.24L1150.72,814a4.62,4.62,0,0,0-3.11,4.36v67.39a4.61,4.61,0,0,0,3.11,4.36l53.08,18.3a244.83,244.83,0,0,0,30.37,73.23l-24.6,50.51a4.6,4.6,0,0,0,.89,5.28l47.65,47.65a4.61,4.61,0,0,0,5.28.88l50.5-24.61a244.71,244.71,0,0,0,73.24,30.36l18.31,53.07a4.61,4.61,0,0,0,4.36,3.11h67.39a4.62,4.62,0,0,0,4.36-3.11l18.3-53.08a244.83,244.83,0,0,0,73.23-30.37l50.5,24.6a4.62,4.62,0,0,0,5.29-.89Z"/><path class="cls-84" d="M1426.9,917.7a67.64,67.64,0,1,1,9.79,1.73A67.79,67.79,0,0,1,1426.9,917.7Zm-10.05-110.26a51.93,51.93,0,1,0,39.33-5.76,52.5,52.5,0,0,0-7.59-1.34A51.57,51.57,0,0,0,1416.85,807.44Z"/><path class="cls-85" d="M1425.46,1016.62a170.1,170.1,0,0,0,17.1.86h0c1.8,0,3.61,0,5.42-.08a168,168,0,0,0,26.51-3l.36-.07,1-.2,2-.41a4,4,0,0,0,3.09-3.46,3.73,3.73,0,0,0-.07-1.24,3.94,3.94,0,0,0-4.69-3,158.85,158.85,0,0,1-167.47-70,157.59,157.59,0,0,1-24.78-85,160.62,160.62,0,0,1,.82-16.31A158.68,158.68,0,0,1,1442.53,692.3c87.51,0,158.65,71.15,158.66,158.63a159,159,0,0,1-22.48,81.46,3.79,3.79,0,0,0-.54,1.63,4,4,0,0,0,7.32,2.43,166.86,166.86,0,0,0,23.6-85.52c0-91.84-74.76-166.54-166.56-166.54a166.61,166.61,0,0,0-165.67,149.44A170.65,170.65,0,0,0,1276,851a166.58,166.58,0,0,0,149.46,165.67Z"/><g class="cls-83"><path class="cls-81" d="M2128,1236.61a6.11,6.11,0,0,0,6.26-3.77c2-4.8,3.78-9.72,5.45-14.63a6.1,6.1,0,0,0-11.56-3.91c-1.58,4.68-3.33,9.37-5.19,13.94a6.1,6.1,0,0,0,3.35,8A6,6,0,0,0,2128,1236.61Z"/><path class="cls-81" d="M2141,1191.62a6.11,6.11,0,0,1-4.75-7.21,254.1,254.1,0,0,0,3.87-25.3q.27-2.67.48-5.37a6.1,6.1,0,0,1,6.57-5.59,6.31,6.31,0,0,1,5.59,6.57c-.15,1.88-.32,3.76-.51,5.62a264.2,264.2,0,0,1-4.05,26.53,6.11,6.11,0,0,1-6.58,4.84C2141.39,1191.69,2141.18,1191.65,2141,1191.62Zm.19-68.85A254.1,254.1,0,0,0,2138,1092a6.1,6.1,0,0,1,12-2,262.32,262.32,0,0,1,3.35,32.29,6.1,6.1,0,0,1-5.84,6.36,6.33,6.33,0,0,1-.87,0A6.1,6.1,0,0,1,2141.17,1122.77Zm-10.18-61a251.83,251.83,0,0,0-10.67-29.08,6.1,6.1,0,0,1,11.17-4.9,265.07,265.07,0,0,1,11.19,30.5,6.1,6.1,0,1,1-11.69,3.48Zm-24.86-56.62a250.65,250.65,0,0,0-17.46-25.57,6.1,6.1,0,0,1,9.64-7.49,264.12,264.12,0,0,1,18.3,26.82,6.1,6.1,0,1,1-10.48,6.24Zm-37.92-48.83a253.66,253.66,0,0,0-23.15-20.57,6.1,6.1,0,0,1,7.54-9.6,266.5,266.5,0,0,1,24.26,21.56,6.1,6.1,0,0,1-4.94,10.37A6,6,0,0,1,2068.21,956.33Zm-48.63-38.15a250.6,250.6,0,0,0-27.44-14.29,6.1,6.1,0,0,1,4.95-11.15,262,262,0,0,1,28.79,15,6.1,6.1,0,0,1-6.3,10.45Zm-56.46-25.09A252.25,252.25,0,0,0,1933,886a6.1,6.1,0,1,1,2.07-12,264.38,264.38,0,0,1,31.6,7.48,6.1,6.1,0,0,1-3.54,11.67Zm-98.44-15.69a6.09,6.09,0,0,1,5.63-6.53,264.77,264.77,0,0,1,28.2-.6c1.43,0,2.85.09,4.27.16a6,6,0,0,1,5.8,6.39,6.11,6.11,0,0,1-6.4,5.8c-1.33-.07-2.67-.12-4-.16a251.39,251.39,0,0,0-26.93.57,6.47,6.47,0,0,1-1.08,0A6.1,6.1,0,0,1,1864.68,877.4Z"/></g><g class="cls-83"><path class="cls-81" d="M1860,1395.28a267,267,0,0,1-31.45-5.54,6.1,6.1,0,0,1,2.84-11.87,250.67,250.67,0,0,0,30,5.28,6.1,6.1,0,0,1-1.31,12.13Zm25.76-4.35a6.11,6.11,0,0,1,6.07-6.14,255.54,255.54,0,0,0,30.41-2,6.1,6.1,0,0,1,1.53,12.1,265.25,265.25,0,0,1-31.87,2.11l-.66,0A6.1,6.1,0,0,1,1885.74,1390.93ZM1798,1380.41a265.23,265.23,0,0,1-29.19-13,6.1,6.1,0,0,1,5.63-10.83,253.62,253.62,0,0,0,27.83,12.38,6.1,6.1,0,0,1-2.74,11.78A6,6,0,0,1,1798,1380.41Zm149.77,4.1a6.11,6.11,0,0,1,4.4-7.42,249.27,249.27,0,0,0,29-9.29,6.1,6.1,0,1,1,4.42,11.37,262.77,262.77,0,0,1-30.43,9.75,6.12,6.12,0,0,1-7.41-4.41ZM1741.41,1351a265,265,0,0,1-25.2-19.62,6.1,6.1,0,1,1,8.06-9.15,252.41,252.41,0,0,0,24,18.7,6.1,6.1,0,0,1-4.07,11.1A6.16,6.16,0,0,1,1741.41,1351Zm-47.86-42.12a266.38,266.38,0,0,1-19.79-25.07,6.1,6.1,0,0,1,10-7,254.58,254.58,0,0,0,18.88,23.92,6.1,6.1,0,0,1-5.18,10.12A6,6,0,0,1,1693.55,1308.9Zm-36.41-52.36a264.8,264.8,0,0,1-13.19-29.1,6.1,6.1,0,1,1,11.39-4.36,249.73,249.73,0,0,0,12.59,27.75,6.1,6.1,0,0,1-10.79,5.71Z"/><path class="cls-81" d="M2011.36,1366.35a6,6,0,0,0,3.5-.7c4.6-2.47,9.14-5.09,13.51-7.79a6.1,6.1,0,1,0-6.41-10.38c-4.16,2.57-8.5,5.07-12.89,7.44a6.1,6.1,0,0,0,2.29,11.43Z"/></g><path class="cls-81" d="M2046.13,1255.56a3.08,3.08,0,0,0,.59-3.53l-16.46-33.8a163.74,163.74,0,0,0,20.31-49l35.51-12.25a3.11,3.11,0,0,0,2.09-2.92V1109a3.09,3.09,0,0,0-2.08-2.92l-35.52-12.25a163.51,163.51,0,0,0-20.32-49l16.46-33.8a3.08,3.08,0,0,0-.59-3.53l-31.89-31.88a3.08,3.08,0,0,0-3.53-.6l-33.8,16.47a163.76,163.76,0,0,0-49-20.32l-12.25-35.51a3.1,3.1,0,0,0-2.92-2.08h-45.09a3.09,3.09,0,0,0-2.92,2.09l-12.25,35.51a163.53,163.53,0,0,0-49,20.33L1769.66,975a3.08,3.08,0,0,0-3.53.6l-31.88,31.88a3.11,3.11,0,0,0-.6,3.54l16.47,33.79a163.65,163.65,0,0,0-20.31,49l-35.52,12.25a3.09,3.09,0,0,0-2.08,2.92v45.09a3.09,3.09,0,0,0,2.09,2.92l35.51,12.24a163.69,163.69,0,0,0,20.33,49l-16.47,33.79a3.11,3.11,0,0,0,.6,3.54l31.88,31.88a3.09,3.09,0,0,0,3.54.59l33.79-16.47a163.67,163.67,0,0,0,49,20.32l12.25,35.51a3.08,3.08,0,0,0,2.92,2.08h45.09a3.09,3.09,0,0,0,2.92-2.08l12.24-35.52a163.67,163.67,0,0,0,49-20.32l33.79,16.46a3.09,3.09,0,0,0,3.54-.59Z"/><path class="cls-86" d="M1878.9,1176.26a45.9,45.9,0,1,1,6.74,1.19A47.85,47.85,0,0,1,1878.9,1176.26Zm-21.62-53a33.93,33.93,0,0,0,24.6,41.21h0a33.94,33.94,0,1,0-24.6-41.21Z"/><path class="cls-87" d="M1877.91,1245.11a116.62,116.62,0,0,0,35-1.78l1-.22a6.09,6.09,0,0,0,4.78-5.34,5.89,5.89,0,0,0-.11-1.91,6.09,6.09,0,0,0-7.24-4.67,103.07,103.07,0,0,1-21.75,2.3h-1.2a101.87,101.87,0,0,1-48.64-12.83,103.64,103.64,0,0,1-22.13-16.58l-.16-.16-.5-.5a102,102,0,0,1-30.08-72.62,105.41,105.41,0,0,1,.53-10.55,102.71,102.71,0,0,1,204.87,10.54,103.27,103.27,0,0,1-.53,10.42,102.2,102.2,0,0,1-14,42.31,6.1,6.1,0,1,0,10.47,6.27,114.67,114.67,0,0,0,15.69-47.34,116.27,116.27,0,0,0,.59-11.66A114.91,114.91,0,0,0,1775.26,1119q-.59,5.84-.59,11.8A115.08,115.08,0,0,0,1877.91,1245.11Z"/></g></svg>