<svg xmlns="http://www.w3.org/2000/svg" xmlns:xlink="http://www.w3.org/1999/xlink" viewBox="0 0 3710 3710"><defs><style>.cls-1,.cls-10,.cls-24,.cls-3,.cls-31,.cls-4,.cls-8{fill:#fff;}.cls-2{opacity:0.64;}.cls-3{opacity:0.5;}.cls-4{opacity:0.56;}.cls-5{fill:url(#linear-gradient);}.cls-6{fill:#bdd0fb;}.cls-7{fill:#91b3fa;}.cls-8{opacity:0.86;}.cls-9{fill:url(#linear-gradient-2);}.cls-10{opacity:0.68;}.cls-11{fill:url(#linear-gradient-3);}.cls-12{fill:url(#linear-gradient-4);}.cls-13{fill:url(#linear-gradient-5);}.cls-14{fill:url(#linear-gradient-6);}.cls-15{fill:url(#linear-gradient-7);}.cls-16{fill:url(#linear-gradient-8);}.cls-17{fill:url(#linear-gradient-9);}.cls-18{fill:url(#linear-gradient-10);}.cls-19{fill:url(#linear-gradient-11);}.cls-20{fill:url(#linear-gradient-12);}.cls-21{fill:url(#linear-gradient-13);}.cls-22{fill:url(#linear-gradient-14);}.cls-23{fill:url(#linear-gradient-15);}.cls-24{opacity:0.7;}.cls-25{fill:url(#linear-gradient-16);}.cls-26{fill:url(#linear-gradient-17);}.cls-27{opacity:0.3;}.cls-28{fill:#7d97f4;}.cls-29{fill:url(#linear-gradient-18);}.cls-30{fill:url(#linear-gradient-19);}.cls-31{font-size:388px;font-family:ProductSans-Regular, Product Sans;}</style><linearGradient id="linear-gradient" x1="3395.3" y1="3616.33" x2="1353.04" y2="1411.99" gradientUnits="userSpaceOnUse"><stop offset="0" stop-color="#dae3fe"/><stop offset="1" stop-color="#e9effd"/></linearGradient><linearGradient id="linear-gradient-2" x1="1498.94" y1="2007.52" x2="2942.19" y2="2007.52" gradientUnits="userSpaceOnUse"><stop offset="0" stop-color="#4f52ff"/><stop offset="1" stop-color="#4042e2"/></linearGradient><linearGradient id="linear-gradient-3" x1="-1337.77" y1="1595.21" x2="-1458.95" y2="1966.66" gradientTransform="matrix(-1, 0, 0, 1, -214.26, 0)" gradientUnits="userSpaceOnUse"><stop offset="0" stop-color="#febbba"/><stop offset="1" stop-color="#ff928e"/></linearGradient><linearGradient id="linear-gradient-4" x1="-1363.42" y1="2915.17" x2="-1108.08" y2="2915.17" xlink:href="#linear-gradient-3"/><linearGradient id="linear-gradient-5" x1="-1012.45" y1="2344.16" x2="-1138.9" y2="3166.09" gradientTransform="matrix(-1, 0, 0, 1, -214.26, 0)" xlink:href="#linear-gradient-2"/><linearGradient id="linear-gradient-6" x1="-1280.01" y1="2303" x2="-1406.46" y2="3124.93" gradientTransform="matrix(-1, 0, 0, 1, -214.26, 0)" xlink:href="#linear-gradient-2"/><linearGradient id="linear-gradient-7" x1="-1518.36" y1="2934.16" x2="-1370.5" y2="2934.16" xlink:href="#linear-gradient-3"/><linearGradient id="linear-gradient-8" x1="-1836.88" y1="1824.81" x2="-1547.41" y2="1824.81" xlink:href="#linear-gradient-3"/><linearGradient id="linear-gradient-9" x1="830.2" y1="2491.29" x2="1173.06" y2="2198.85" xlink:href="#linear-gradient-2"/><linearGradient id="linear-gradient-10" x1="-138.35" y1="4267.3" x2="547.46" y2="3379.78" gradientUnits="userSpaceOnUse"><stop offset="0" stop-color="#09005d"/><stop offset="1" stop-color="#1a0f91"/></linearGradient><linearGradient id="linear-gradient-11" x1="-1473.53" y1="1966.92" x2="-1383.05" y2="1966.92" xlink:href="#linear-gradient-3"/><linearGradient id="linear-gradient-12" x1="-1329.73" y1="1849.99" x2="-671.13" y2="1894.78" xlink:href="#linear-gradient-3"/><linearGradient id="linear-gradient-13" x1="-1221.48" y1="1810.29" x2="-1453.3" y2="2273.94" gradientTransform="matrix(-1, 0, 0, 1, -214.26, 0)" xlink:href="#linear-gradient-10"/><linearGradient id="linear-gradient-14" x1="1656.72" y1="41.63" x2="1548.36" y2="428.62" gradientUnits="userSpaceOnUse"><stop offset="0" stop-color="#ff928e"/><stop offset="1" stop-color="#fe7062"/></linearGradient><linearGradient id="linear-gradient-15" x1="1291.22" y1="785.64" x2="1387.77" y2="2330.45" xlink:href="#linear-gradient-14"/><linearGradient id="linear-gradient-16" x1="2588.04" y1="2387.14" x2="2615.16" y2="2753.24" xlink:href="#linear-gradient-14"/><linearGradient id="linear-gradient-17" x1="2634.04" y1="3043" x2="2678.23" y2="3498.56" xlink:href="#linear-gradient-14"/><linearGradient id="linear-gradient-18" x1="3590.29" y1="1375.37" x2="3481.93" y2="1762.36" xlink:href="#linear-gradient-14"/><linearGradient id="linear-gradient-19" x1="3224.77" y1="2123.37" x2="3321.32" y2="3668.18" xlink:href="#linear-gradient-14"/></defs><g id="Background"><rect class="cls-1" width="3710" height="3710"/></g><g id="Illustration"><g class="cls-2"><path class="cls-1" d="M782.36,2559.77a.94.94,0,0,1-.9-.67c-.14-.49-.27-1-.39-1.49a.94.94,0,0,1,1.82-.43c.1.47.23.93.36,1.39a.93.93,0,0,1-.63,1.16A.82.82,0,0,1,782.36,2559.77Z"/><path class="cls-1" d="M781.3,2553.24a.94.94,0,0,1-.94-.9c0-.35,0-.7,0-1.05,0-.65,0-1.3.07-1.95l0-.27a.93.93,0,0,1,1.86.15l0,.25c0,.61-.06,1.22-.06,1.82,0,.33,0,.66,0,1a.93.93,0,0,1-.9,1Zm1-8.21a.69.69,0,0,1-.25,0,.92.92,0,0,1-.65-1.14,28.25,28.25,0,0,1,1-3.1.93.93,0,0,1,1.73.7,24.62,24.62,0,0,0-1,2.89A.92.92,0,0,1,782.25,2545Zm3.4-7.54a.93.93,0,0,1-.78-1.44,29.2,29.2,0,0,1,1.94-2.63.94.94,0,0,1,1.32-.11.93.93,0,0,1,.11,1.31,25.37,25.37,0,0,0-1.81,2.45A.94.94,0,0,1,785.65,2537.49Zm5.53-6.14a.93.93,0,0,1-.72-.34.92.92,0,0,1,.13-1.31,29.27,29.27,0,0,1,2.65-1.92.93.93,0,0,1,1,1.58,26.61,26.61,0,0,0-2.47,1.78A.93.93,0,0,1,791.18,2531.35Zm7.13-4.18a.93.93,0,0,1-.34-1.8,28.25,28.25,0,0,1,3.11-1,.94.94,0,0,1,.47,1.81,23.39,23.39,0,0,0-2.9,1A1,1,0,0,1,798.31,2527.17Zm19.32-.15a1,1,0,0,1-.33-.06,25.06,25.06,0,0,0-2.91-.9.93.93,0,0,1,.44-1.81,26.34,26.34,0,0,1,3.13,1,.93.93,0,0,1-.33,1.8Zm-11.26-1.66a.93.93,0,0,1-.06-1.86,27.44,27.44,0,0,1,3.27,0,.93.93,0,1,1-.09,1.86,28.19,28.19,0,0,0-3,0Z"/><path class="cls-1" d="M823.5,2530.1a.94.94,0,0,1-.53-.16c-.39-.28-.8-.54-1.21-.79a1,1,0,0,1-.3-1.29.93.93,0,0,1,1.28-.3q.66.41,1.29.84a.93.93,0,0,1,.24,1.3A1,1,0,0,1,823.5,2530.1Z"/></g><g class="cls-2"><path class="cls-1" d="M834.78,2548.3a.94.94,0,0,1-.93-.8c-.06-.47-.15-.95-.24-1.42a.93.93,0,1,1,1.82-.37c.11.51.2,1,.27,1.52a.94.94,0,0,1-.79,1.06Z"/><path class="cls-1" d="M808.2,2579.08c-.65,0-1.31,0-2-.06l-1-.09a.93.93,0,0,1,.19-1.86l.94.09c.61,0,1.22.06,1.82.06h.25a.93.93,0,0,1,.93.92.92.92,0,0,1-.92.94Zm5.26-.52a.93.93,0,0,1-.18-1.84,26.3,26.3,0,0,0,2.9-.76.93.93,0,0,1,.58,1.77,28.07,28.07,0,0,1-3.12.82Zm-13.07-.62a.84.84,0,0,1-.27,0,26.59,26.59,0,0,1-3-1.11.92.92,0,0,1-.49-1.22,1,1,0,0,1,1.23-.49,23.16,23.16,0,0,0,2.82,1,.94.94,0,0,1-.27,1.83Zm20.71-2.17a.93.93,0,0,1-.45-1.75,25.69,25.69,0,0,0,2.54-1.59.93.93,0,0,1,1.08,1.52,29.53,29.53,0,0,1-2.72,1.71A.91.91,0,0,1,821.1,2575.77Zm6.45-4.94a.94.94,0,0,1-.67-1.58,28.37,28.37,0,0,0,2-2.28.93.93,0,0,1,1.3-.18.94.94,0,0,1,.18,1.31,28.6,28.6,0,0,1-2.09,2.44A1,1,0,0,1,827.55,2570.83Zm4.69-6.65a.86.86,0,0,1-.41-.1.93.93,0,0,1-.42-1.25,26.93,26.93,0,0,0,1.18-2.76.94.94,0,0,1,1.19-.56.92.92,0,0,1,.56,1.19,27.68,27.68,0,0,1-1.26,3A.94.94,0,0,1,832.24,2564.18Zm2.48-7.75h-.15a.93.93,0,0,1-.77-1.06c.12-.76.21-1.54.26-2.31,0-.23,0-.45,0-.68a.93.93,0,0,1,1.86.08c0,.24,0,.49,0,.73-.06.83-.15,1.66-.28,2.47A.92.92,0,0,1,834.72,2556.43Z"/><path class="cls-1" d="M793,2574.43a.92.92,0,0,1-.52-.17c-.42-.28-.84-.59-1.25-.9a.93.93,0,0,1,1.13-1.48q.57.43,1.17.84a.94.94,0,0,1-.53,1.71Z"/></g><path class="cls-3" d="M793.65,2566a.31.31,0,0,0,.36.1l3.68-1.35a17.42,17.42,0,0,0,4.88,2.63l.9,3.82a.33.33,0,0,0,.29.24l4.68.48a.33.33,0,0,0,.33-.19l1.65-3.56a16.8,16.8,0,0,0,5.3-1.6l3.34,2.07a.35.35,0,0,0,.38,0l3.65-3a.35.35,0,0,0,.1-.36l-1.36-3.69a16.9,16.9,0,0,0,2.63-4.88l3.82-.9a.33.33,0,0,0,.25-.28l.47-4.69a.3.3,0,0,0-.18-.32l-3.57-1.65a17.19,17.19,0,0,0-1.59-5.31l2.07-3.34a.32.32,0,0,0,0-.37l-3-3.65a.31.31,0,0,0-.36-.1l-3.69,1.35a16.87,16.87,0,0,0-4.88-2.62l-.9-3.83a.31.31,0,0,0-.28-.24l-4.68-.48a.33.33,0,0,0-.33.19L806,2534a16.94,16.94,0,0,0-5.31,1.6l-3.34-2.07a.33.33,0,0,0-.37,0l-3.65,3a.32.32,0,0,0-.1.36l1.36,3.69a17,17,0,0,0-2.63,4.88l-3.82.9a.32.32,0,0,0-.25.28l-.47,4.69a.32.32,0,0,0,.18.33l3.56,1.64a17.48,17.48,0,0,0,1.6,5.31l-2.07,3.34a.32.32,0,0,0,0,.37Z"/><path class="cls-4" d="M808.18,2556.35a5.31,5.31,0,0,1-5.24-4.53,5.3,5.3,0,0,1,4.47-6A5.3,5.3,0,1,1,809,2556.3,6.81,6.81,0,0,1,808.18,2556.35Zm0-8.36a3.4,3.4,0,0,0-.45,0,3.06,3.06,0,1,0,.89,6.06,3,3,0,0,0,2-1.2,3,3,0,0,0-.63-4.29A3,3,0,0,0,808.19,2548Z"/><path class="cls-4" d="M808.26,2562.72c-.39,0-.79,0-1.19-.06l-.19,0a11.43,11.43,0,0,1-2.25-.49.37.37,0,0,1-.26-.35.25.25,0,0,1,0-.12.37.37,0,0,1,.47-.24,11.1,11.1,0,0,0,2.29.48h0a11,11,0,0,0,12-9.43c0-.13,0-.26.05-.4,0-.38,0-.75,0-1.12a11,11,0,0,0-21.93-1.1,10.51,10.51,0,0,0-.06,1.12,10.89,10.89,0,0,0,1,4.66.41.41,0,0,1,0,.16.36.36,0,0,1-.21.33.37.37,0,0,1-.5-.18,11.74,11.74,0,1,1,22.38-5,11.75,11.75,0,0,1-11.74,11.75Z"/><path class="cls-5" d="M3110.7,2360.15c-280.63,655.92-1021.37,937.66-1601.76,889.62-158.47-13.12-477.32-39.51-726.27-274.94-478.1-452.12-404.47-1397.2,53.21-1953.6,58.94-71.66,466.91-551.73,1102.66-545.3,465.47,4.7,792.17,267.64,831.9,300.39C2820.62,817.7,2931.31,916,3031.06,1072,3265.45,1438.58,3286.06,1950.27,3110.7,2360.15Z"/><path class="cls-6" d="M1583.66,3049.36s-343-1147.57-950.88-1749.28c-40.86-40.45-110.26-19.93-122.21,36.31C430.65,1712.46,301.17,2846.63,1583.66,3049.36Z"/><path class="cls-3" d="M1463.41,2981a3.17,3.17,0,0,1-3.83,5c-122.57-80.59-601.75-483.7-819-1329.74-.7-2.72,3.28-4,4.21-1.35C713.29,1850.05,988.83,2568,1463.41,2981Z"/><path class="cls-7" d="M562.44,477.08c-5-8.87,5.39-18.41,13.74-12.56,133.19,93.45,600,464.68,724.22,1153.12,113.66,629.89,90.23,1090.43,74.59,1261.4-3.09,33.81-41.43,51.81-69.39,32.55-165.71-114.15-613-458.05-652.89-868.8C605,1551.94,801.47,900.78,562.44,477.08Z"/><rect class="cls-7" x="1154.58" y="719.94" width="1997.77" height="2446.56" rx="38.83"/><rect class="cls-8" x="1215.4" y="811.31" width="1876.12" height="2297.59" rx="38.83"/><path class="cls-9" d="M1592.14,3106.19l93.44-742.66c18.84-126.19-18.45-253-100.78-342h0c-45.77-49.47-74.7-114.84-81.19-185.33-10.13-110.09-8.91-290,57.67-509,88-289.68,351.64-460,619.67-409.46,131,24.69,281.61,74.11,437.72,167.23,88.78,53,149.24,152.32,158.78,264.84,4.44,52.31,12.66,110.25,27.57,161.73,18.75,64.68,26.87,109,30.22,137.71,3,26.06-5.79,52.15-23.17,69.42h0c-17.93,17.8-22.38,47.68-10.59,71.08l137.93,238.65,2.79,14.31c-8,27.23-28.14,61.42-50.6,63.74l-78.63,8.1,3,92.66c.58,17.89-9.66,34.24-24.72,39.45l-18.07,6.25,16.49,14.59c13.4,11.87,16.91,33.47,8.27,50.8l-23.27,46.69c-10.54,21.14-9,47.1,3.81,65.52,21.23,30.45,18.84,93.72-5.16,118.59-50.07,51.9-153.07,54.24-204.49,50.48-79-5.78-150-42.12-223.1-4.53a166.06,166.06,0,0,0-45.48,34.79l6.15,476.4Z"/><path class="cls-1" d="M2155.1,1850.31a6.73,6.73,0,0,1-2-.31l-121.71-38.83a6.75,6.75,0,0,1-2.76-1.69l-56.51-57.68-92.69-20.15-124.52,11.14a6.71,6.71,0,0,1-4.06-.93L1619.57,1663a6.69,6.69,0,0,1-2.65-3l-43-94.34a6.7,6.7,0,0,1-.51-4l24.41-137.34-3.66-94a6.74,6.74,0,0,1,1.36-4.33l65.35-86,53.7-103.07a6.69,6.69,0,0,1,3.51-3.16l121.72-47.54,94.5-52.17a6.77,6.77,0,0,1,2-.73l179.55-33.89a6.71,6.71,0,0,1,3.76.37L2221.72,1041l149.89-9.37a6.64,6.64,0,0,1,4.94,1.74l104.56,95.22,125.21,36.76a6.75,6.75,0,0,1,4.46,4.23l70.64,201.72a6.73,6.73,0,0,1,.38,2.22v128.12a6.86,6.86,0,0,1-.37,2.2l-49.19,142.59a6.66,6.66,0,0,1-2.22,3.11l-147.77,115.32a6.62,6.62,0,0,1-4,1.42l-148,3.69-172.34,79.7A6.61,6.61,0,0,1,2155.1,1850.31ZM2037,1798.87l117.62,37.52,171.23-79.19a6.56,6.56,0,0,1,2.65-.62l147.2-3.66,144.45-112.73,48.17-139.65V1374.68l-69.12-197.38-123.4-36.23a6.55,6.55,0,0,1-2.63-1.48l-103.6-94.35L2221,1054.53a6.63,6.63,0,0,1-2.93-.47l-101.73-40.91-176.55,33.33-93.95,51.87a7.49,7.49,0,0,1-.81.38l-119.78,46.78-52.79,101.34a6,6,0,0,1-.61,1l-64.23,84.52,3.6,92.29a6.89,6.89,0,0,1-.1,1.44l-24.17,136,41.29,90.54,127.58,76.61,123.36-11a6.63,6.63,0,0,1,2,.12l95.65,20.79a6.73,6.73,0,0,1,3.37,1.87Z"/><path class="cls-1" d="M1836.52,1954.89a6,6,0,0,1-.85-.07l-112.93-19.15a5.08,5.08,0,0,1-2.19-.93l-69.44-52.08a5,5,0,0,1-2-3.41l-9.76-78.08L1596.49,1742a5,5,0,0,1-.77-4.29l22.45-81.71,9.73,2.67L1606.08,1738l42.23,58.3a5.06,5.06,0,0,1,.91,2.34l9.66,77.23,66.75,50.06,110.3,18.7,111.41-45.82a5,5,0,0,1,.83-.26l113.39-25.17,35.68-50.64,8.24,5.81-36.8,52.23a5.06,5.06,0,0,1-3,2l-114.87,25.5-112.35,46.21A5,5,0,0,1,1836.52,1954.89Z"/><polygon class="cls-1" points="2222.07 1692.04 2025.6 1692.04 2011.96 1564.3 1750.7 1564.3 1816.2 1413.45 1780.23 1295.11 1600.45 1334.09 1599.02 1327.51 1784.86 1287.23 1823.35 1413.86 1760.94 1557.58 2018 1557.58 2031.64 1685.31 2217.08 1685.31 2269.99 1510.12 2417.07 1582.2 2508.32 1471.02 2621.76 1485.56 2670.81 1375.35 2416.22 1267.56 2291.67 1385.93 2134.34 1393.59 2124.42 1221.51 1938.78 1166.99 1922.8 1046.8 1929.46 1045.92 1944.86 1161.77 2130.86 1216.39 2140.67 1386.55 2288.85 1379.34 2414.78 1259.65 2679.74 1371.83 2625.87 1492.86 2511.16 1478.16 2418.89 1590.58 2274.14 1519.64 2222.07 1692.04"/><path class="cls-1" d="M2196.82,1833.36l-168.05-144-53.14,58.6-1.24-1L1755.74,1562.7l-.16.12-.64,1-.43-.27L1624,1658.64l-2-2.72,129.36-94.22-77.81-47.46-5-84.34.16-.37,55.41-126.31-19.34-146,78.76,132.4L1981.13,1306l-158.58-100.82L1940.66,1163l79.62-140.91,137.15,69.45-27.69,125.68,159.17-2.43,39.34-174.09,88.14,220.57,190.39-92.42-29.9,163.08-65.29,142.43L2602.08,1666l-181.06,3.5ZM2028.47,1684.7,2197,1829.08l222.91-162.93,176.93-3.42-88.94-188.34.33-.71,65.53-142.94,28.54-156-187.67,91.1L2329.15,1052l-37.54,166.11-166.07,2.54,28.05-127.29-132-66.82L1943,1165.75,1830.16,1206l164.28,104.44-212.9-17.68L1710.27,1173l17.31,130.75-.18.43L1672,1430.51l4.89,81.78,77.5,47.26,1.55-1.12,219.41,184.9Z"/><path class="cls-10" d="M2033.4,1806a1.25,1.25,0,0,1-1.26-1.21l-4.78-117.73a1.25,1.25,0,0,1,.32-.89l137.69-153.46-28.52-139.6L2016,1561.3a1.26,1.26,0,0,1-2.13-.14l-60.5-113L1822,1415.32l64,144.73a1.2,1.2,0,0,1,.1.67l-12.61,98a1.26,1.26,0,0,1-.77,1L1725,1719.42a1.22,1.22,0,0,1-1,0,1.26,1.26,0,0,1-.65-.81l-29.46-112.8-114.44-55.85a1.27,1.27,0,0,1-.07-2.24l238.44-134.56-92.1-107.87L1604.79,1411a1.26,1.26,0,0,1-1.66-1.9L1725,1302.51a1.34,1.34,0,0,1,.92-.31,1.31,1.31,0,0,1,.86.44l93.66,109.7,134.06,33.54a1.26,1.26,0,0,1,.8.63l59.81,111.67,121.34-168.85a1.28,1.28,0,0,1,1.29-.5,1.25,1.25,0,0,1,1,1l29.23,143a1.29,1.29,0,0,1-.29,1.1L2029.9,1687.5l4.69,115.64,98.78-26.9,85.29-90.06a1.1,1.1,0,0,1,.35-.26l198.4-101.06a1.26,1.26,0,0,1,1.83,1.08l2.48,81.84a1.26,1.26,0,0,1-1.22,1.3,1.23,1.23,0,0,1-1.3-1.22l-2.42-79.85-196.44,100.06L2135,1778.23a1.25,1.25,0,0,1-.58.35L2033.73,1806A1.24,1.24,0,0,1,2033.4,1806ZM1582.71,1548.7l112.8,55.06a1.26,1.26,0,0,1,.67.81l29.25,112L1871,1657.72l12.46-97-64.3-145.5Z"/><path class="cls-10" d="M2492.73,1749.37a.75.75,0,0,1-.21,0l-147.94-25-125.35-36.12a1.26,1.26,0,0,1-.86-.83,1.28,1.28,0,0,1,.23-1.18l109.12-132.92a1.26,1.26,0,0,1,.47-.36l179.88-79.22-92.37-206.61-49.84,158.13a1.14,1.14,0,0,1-.33.53L2272.94,1515a1.26,1.26,0,0,1-2.12-1.07l18.08-134.43L2131,1289.4a1.26,1.26,0,0,1,.1-2.24l158.62-71.85a1.42,1.42,0,0,1,.7-.09l112.37,16.65,73.49-98a1.26,1.26,0,0,1,2.24.48l19.87,88.58,90.55,35.31a1.3,1.3,0,0,1,.54.42l86.78,114.12a1.26,1.26,0,0,1-2,1.53l-86.56-113.84L2496.86,1225a1.25,1.25,0,0,1-.77-.9l-19.41-86.57-72.3,96.41a1.26,1.26,0,0,1-1.2.49l-112.74-16.71-156,70.68,156.47,89.26a1.26,1.26,0,0,1,.63,1.26l-17.71,131.69,89.75-86.45,50.75-161a1.27,1.27,0,0,1,1.13-.88,1.24,1.24,0,0,1,1.22.75l94.24,210.8a1.28,1.28,0,0,1-.64,1.67l-180.77,79.61-107.71,131.21,123.37,35.55,147.8,25a1.26,1.26,0,0,1-.21,2.5Z"/><path class="cls-1" d="M2438.75,1740.26a1.29,1.29,0,0,1-.83-.31,1.26,1.26,0,0,1-.12-1.78l62.64-71.85-83.33-79.43a1.26,1.26,0,0,1,.63-2.15l132.09-25.34,73.11-71.19a1.25,1.25,0,0,1,2.09.56l22.32,79.51a1.26,1.26,0,0,1-2.43.68l-21.74-77.47-71.86,70a1.3,1.3,0,0,1-.65.33l-130.05,25,82.43,78.57a1.25,1.25,0,0,1,.08,1.74l-63.43,72.75A1.25,1.25,0,0,1,2438.75,1740.26Z"/><path class="cls-1" d="M1781,1294l-.34,0a1.69,1.69,0,0,1-1.34-1.51l-13.39-168.89a1.68,1.68,0,0,1,1.55-1.81,1.73,1.73,0,0,1,1.8,1.54l12.93,163.07,46.36-88.65L1866.32,1078a1.68,1.68,0,0,1,3.2,1l-37.87,120-49.17,94.1A1.69,1.69,0,0,1,1781,1294Z"/><path class="cls-10" d="M2015,1561.82a1.3,1.3,0,0,1-.76-.25L1819,1414.47a1.25,1.25,0,0,1-.37-1.55l55-114L1819,1202.2a1.26,1.26,0,0,1,1.35-1.85l239.52,48.83-60.52-66.8a1.27,1.27,0,0,1,.3-1.94l155.29-89.07,64.92-44.59a1.26,1.26,0,0,1,1.42,2.08l-65,44.64-154,88.35,61.41,67.78,63.45-31.81,200.8-172.42a1.26,1.26,0,0,1,1.64,1.92L2128.46,1219.9,2064,1252.26,1988.9,1309,1956,1445.24l181.16-56.38a1.26,1.26,0,0,1,1.23.27l134.56,124a1.25,1.25,0,0,1-.63,2.16l-257.09,46.5A.78.78,0,0,1,2015,1561.82Zm-193.62-148.74,193.94,146.14,254-46-132.16-121.79-182.59,56.83a1.26,1.26,0,0,1-1.24-.29,1.24,1.24,0,0,1-.36-1.21l33.56-138.88a1.23,1.23,0,0,1,.46-.71l73.33-55.36-237.84-48.49,53.61,94.86a1.24,1.24,0,0,1,0,1.17Z"/><path class="cls-1" d="M2137.51,1391.32a1.31,1.31,0,0,1-.61-.15l-149.72-81.84a1.26,1.26,0,0,1-.64-1.34,1.28,1.28,0,0,1,1.07-1l143.86-19.91,283.92-24.73a1.24,1.24,0,0,1,1.37,1.14,1.27,1.27,0,0,1-1.15,1.37l-283.86,24.72-140,19.39,146.37,80a1.26,1.26,0,0,1-.6,2.36Z"/><polygon class="cls-1" points="1933.85 1905.74 1886.23 1832.71 1766.16 1806.17 1753.07 1738.72 1645.06 1800.72 1643.38 1797.8 1755.48 1733.46 1769.04 1803.37 1888.29 1829.72 1934.91 1901.21 2034.31 1842.67 2031.81 1806.18 1938.59 1788.26 1866.83 1727.21 1869.01 1724.65 1940.09 1785.13 2034.98 1803.36 2037.81 1844.51 1933.85 1905.74"/><path class="cls-10" d="M1788.48,1943.28a1.66,1.66,0,0,1-1.27-.59L1721,1865.23l-31.77,39.3a1.68,1.68,0,1,1-2.61-2.11l32.16-39.79-.24-.28a1.78,1.78,0,0,1-.32-.57l-28-86.8a1.53,1.53,0,0,1-.08-.52v-74.17l-87.7,40.23a1.68,1.68,0,1,1-1.4-3l90.08-41.32a1.68,1.68,0,0,1,2.38,1.52v76.53l27.56,85.55,45.29-56a1.63,1.63,0,0,1,.83-.55L1911,1761.27a1.68,1.68,0,0,1,2,2.17l-43.29,122.92a1.75,1.75,0,0,1-.62.82l-79.73,55.8A1.64,1.64,0,0,1,1788.48,1943.28Zm-65.36-80.71,65.65,76.78,78-54.61,42-119.32-140.18,40.82Z"/><circle class="cls-1" cx="1780.99" cy="1292.35" r="17.73"/><circle class="cls-1" cx="1945.54" cy="1165.62" r="17.73" transform="translate(364.11 2791.31) rotate(-76.72)"/><circle class="cls-1" cx="2220.56" cy="1688.9" r="17.73"/><circle class="cls-1" cx="2415.5" cy="1269.78" r="17.73" transform="translate(-302.06 1021.03) rotate(-22.5)"/><circle class="cls-1" cx="2144.44" cy="1096.22" r="17.73" transform="translate(584.86 2931.43) rotate(-76.72)"/><circle class="cls-1" cx="2137.51" cy="1390.06" r="17.73" transform="translate(-369.25 923.8) rotate(-22.5)"/><circle class="cls-1" cx="2013.51" cy="1560.56" r="17.73" transform="translate(-443.93 889.33) rotate(-22.5)"/><circle class="cls-1" cx="1755.82" cy="1562.42" r="17.73" transform="translate(-590.53 1699.18) rotate(-45)"/><circle class="cls-1" cx="1773.55" cy="1804.77" r="17.73" transform="translate(-390.42 3116.22) rotate(-76.72)"/><circle class="cls-1" cx="2514.33" cy="1476.86" r="17.73"/><circle class="cls-1" cx="2574.22" cy="1336.74" r="17.73" transform="translate(681.8 3534.98) rotate(-76.72)"/><circle class="cls-1" cx="1830.93" cy="1204.06" r="11.16" transform="translate(-315.13 1647.33) rotate(-45)"/><circle class="cls-1" cx="2496.6" cy="1221.14" r="11.16"/><circle class="cls-1" cx="2420.46" cy="1589.45" r="11.16"/><circle class="cls-1" cx="2556.49" cy="1560.56" r="11.16" transform="translate(-354.71 2264.79) rotate(-45)"/><circle class="cls-1" cx="1890.24" cy="1831.22" r="11.16" transform="translate(-556.89 862.76) rotate(-22.5)"/><circle class="cls-1" cx="1721.6" cy="1867.46" r="11.16"/><circle class="cls-1" cx="1686.38" cy="1777.37" r="11.16" transform="translate(-551.8 780.64) rotate(-22.5)"/><circle class="cls-1" cx="1987.78" cy="1308.22" r="11.16"/><circle class="cls-1" cx="2166.74" cy="1531.67" r="11.16"/><circle class="cls-1" cx="2290.26" cy="1215.02" r="11.16"/><circle class="cls-1" cx="1867.92" cy="1660.01" r="11.16" transform="translate(-626.71 1807.03) rotate(-45)"/><circle class="cls-1" cx="1956.7" cy="1441.37" r="11.16" transform="translate(220.51 3141.92) rotate(-80.78)"/><circle class="cls-1" cx="1819.77" cy="1413.73" r="11.16" transform="translate(-466.66 1700.84) rotate(-45)"/><circle class="cls-1" cx="2290.26" cy="1378.79" r="11.16"/><path class="cls-11" d="M1241.49,1622.68s168.59,215.85-23.76,435.38l-72.31-6.74s139.2-223.51,77.2-401.68l-102.43,7.48-56.65-36.92Z"/><path class="cls-12" d="M1149.16,2679.46s-136.59,297.7-208.26,421c0,0-14.23,77.59,0,102l12.13,5.39-56.61-1.68s-5-104.36-1.1-110.19,11.78-5.45,11.78-5.45,24.28-192.32,94.58-233.36l68.13-234.66Z"/><path class="cls-13" d="M977.21,3222.46c.09,1.37-44.2.74-68.26.3a19.12,19.12,0,0,1-18.35-15.08l-18.17-95.46a17.16,17.16,0,0,1,13-19.94L895.6,3090s14.47,19.85,9.92,38.53-8.61,67.09,2.9,72.73,44.61,6.62,44.61,6.62S976.45,3210.17,977.21,3222.46Z"/><path class="cls-14" d="M1278.62,3224.19a5,5,0,0,1-2.52,9.34c-40.26-.4-130.48-1.68-138.5-5-10.35-4.3,3.77-41.5,18.63-54.08l82.07,26.78Z"/><path class="cls-15" d="M1304.1,2660.47s-88.27,427-113.24,510.31l59.07,37.06s-29.6-5-51.55-6.62-42.15-26.78-42.15-26.78l7.08-11.29s22.14-424.69,16.75-472.91Z"/><path class="cls-16" d="M1523.21,1664.47s12.17,222.12-190.06,335.63l48.69,111.05s183.09-110.75,176.32-412.8a35.15,35.15,0,0,1,8.6-23.65l38.91-45.14a69.85,69.85,0,0,0,14.86-62.56l-5.13-20.48a10.61,10.61,0,0,0-15.63-6.6l-4.07,2.36a71.49,71.49,0,0,0-29.33,32.61l-19.11,42.71a41.07,41.07,0,0,1-41,24.14l-11.81-1Z"/><path class="cls-17" d="M1340.19,1983.46c-33.83,9.38-148.46,39.53-220,38.3l43.93,247.93-3.49,40.43,143.24-.64s40.32-93.65,72.14-140.34c9.19-13.48,2.35-29.56-2.86-45l7.16-4.76a19.48,19.48,0,0,0,7.72-22.27l-34.88-106.73A10.65,10.65,0,0,0,1340.19,1983.46Z"/><path class="cls-18" d="M1315.34,2288.32l-2.82,24.5s40.48,121.23-20.24,404.38c0,0-131.51,37.25-239.59-51.89,0,0,30.48-267.25,38.81-279.7,41.48-62,69.12-75.49,69.12-75.49l1.24-26.76S1277.47,2304.26,1315.34,2288.32Z"/><path class="cls-19" d="M1259.26,2003.44c.51-.67-29.9-91.81-29.9-91.81l-43.56,3.95-17,103.4S1237.05,2032.76,1259.26,2003.44Z"/><path class="cls-20" d="M1196.23,1767.9c2.91,1.81,93.08,39.07,73.7,132.69a17.55,17.55,0,0,1-10,12.52c-13.24,5.9-41.72,16-75.79,12.54-47.24-4.8-78.19-87.23-76.88-111.21S1167.45,1750,1196.23,1767.9Z"/><path class="cls-21" d="M1168.79,1731.51c2.37.31,52.11,17.63,27.44,53.67s-33.92,57.26-22.25,73.09c10.63,14.41,34.17,6.2,32.12,36.2a16.8,16.8,0,0,0,7.17,15.2c22.19,15,76.32,61.25,22.69,127.17a16.8,16.8,0,0,0-1.9,18.79c15.71,28.18,48.7,110.71-70.75,156.5-118,45.24-160.65-31.92-172.56-62.76A16.46,16.46,0,0,0,974.46,2139c-13,.61-31.35-1.54-30.5-18.88.51-10.53,7.08-20,14.84-27.52s6.17-20.6-3.16-25.9c-7-4-13.28-10.25-15.91-20-7.16-26.51,7.13-105.77,83.1-119.2,6.33-1.12,13-7.06,13.89-13.43,0-.1,0-.19,0-.29,1-6.16-1.07-12.45-6.1-16.15-12.13-8.9-27.69-26.81-15.05-55.54,11.2-25.48,32.7-34.08,48.66-36.82a16.55,16.55,0,0,0,13.56-19.78C1072.46,1760.09,1077.15,1719.49,1168.79,1731.51Z"/><rect class="cls-22" x="893.82" y="862.93" width="851.72" height="764.83" rx="19.93"/><rect class="cls-23" x="938.36" y="898.91" width="762.69" height="684.89" rx="19.93"/><path class="cls-24" d="M951.8,1194.71a3.37,3.37,0,0,1-3.36-3.36V982.06a70.42,70.42,0,0,1,70.35-70.34h240.48a3.36,3.36,0,1,1,0,6.72H1018.79a63.69,63.69,0,0,0-63.63,63.62v209.29A3.36,3.36,0,0,1,951.8,1194.71Z"/><path class="cls-24" d="M951.8,1358.48a3.37,3.37,0,0,1-3.36-3.37V1217.22a3.36,3.36,0,1,1,6.72,0v137.89A3.36,3.36,0,0,1,951.8,1358.48Z"/><path class="cls-1" d="M1432,1471.91H1371.2q-10.21,0-16.79-5.11a29,29,0,0,1-9.49-12.7l-31.54-86.16H1138.45l-31.55,86.16q-2.33,6.72-9.19,12.26a25.87,25.87,0,0,1-16.79,5.55h-61l165.88-422.29h80.31ZM1158.6,1312.46h134.63L1241.83,1172q-3.51-9.35-7.74-22t-8.33-27.6q-4.08,14.9-8,27.74t-7.75,22.49Z"/><path class="cls-1" d="M1563.94,1471.91h-78.85V1049.62h78.85Z"/><rect class="cls-25" x="2026.62" y="2963.37" width="1226.63" height="248.61" rx="8.39"/><rect class="cls-26" x="2049.31" y="2978.84" width="1177.63" height="212.68" rx="8.39"/><path class="cls-1" d="M2148.28,3086.17a81.86,81.86,0,0,1-2.79,22.66,46.61,46.61,0,0,1-7.72,15.9,31.26,31.26,0,0,1-11.66,9.34,34.54,34.54,0,0,1-14.52,3.07,34.07,34.07,0,0,1-14.46-3.07,31.16,31.16,0,0,1-11.55-9.34,46.56,46.56,0,0,1-7.66-15.9,94.57,94.57,0,0,1,0-45.36,46.43,46.43,0,0,1,7.66-15.86,31.19,31.19,0,0,1,11.55-9.35,34.07,34.07,0,0,1,14.46-3.07,34.54,34.54,0,0,1,14.52,3.07,31.29,31.29,0,0,1,11.66,9.35,46.49,46.49,0,0,1,7.72,15.86A81.77,81.77,0,0,1,2148.28,3086.17Zm-17.59,0a85,85,0,0,0-1.58-17.94,36.15,36.15,0,0,0-4.24-11.31,15.54,15.54,0,0,0-6.11-5.9,16.06,16.06,0,0,0-7.17-1.69,15.68,15.68,0,0,0-7.07,1.69,15.34,15.34,0,0,0-6,5.9,36,36,0,0,0-4.17,11.31,103.88,103.88,0,0,0,0,35.87,36,36,0,0,0,4.17,11.32,15.31,15.31,0,0,0,6,5.89,15.68,15.68,0,0,0,7.07,1.69,16.06,16.06,0,0,0,7.17-1.69,15.51,15.51,0,0,0,6.11-5.89,36.21,36.21,0,0,0,4.24-11.32A84.8,84.8,0,0,0,2130.69,3086.17Z"/><path class="cls-1" d="M2228.3,3086.17a81.86,81.86,0,0,1-2.79,22.66,46.44,46.44,0,0,1-7.73,15.9,31.18,31.18,0,0,1-11.66,9.34,34.47,34.47,0,0,1-14.52,3.07,34.06,34.06,0,0,1-14.45-3.07,31,31,0,0,1-11.55-9.34,46.38,46.38,0,0,1-7.66-15.9,94.57,94.57,0,0,1,0-45.36,46.25,46.25,0,0,1,7.66-15.86,31,31,0,0,1,11.55-9.35,34.06,34.06,0,0,1,14.45-3.07,34.47,34.47,0,0,1,14.52,3.07,31.21,31.21,0,0,1,11.66,9.35,46.31,46.31,0,0,1,7.73,15.86A81.77,81.77,0,0,1,2228.3,3086.17Zm-17.59,0a85,85,0,0,0-1.58-17.94,36.14,36.14,0,0,0-4.25-11.31,15.46,15.46,0,0,0-6.1-5.9,16.07,16.07,0,0,0-7.18-1.69,15.74,15.74,0,0,0-7.07,1.69,15.32,15.32,0,0,0-6,5.9,36.21,36.21,0,0,0-4.18,11.31,104.54,104.54,0,0,0,0,35.87,36.28,36.28,0,0,0,4.18,11.32,15.29,15.29,0,0,0,6,5.89,15.74,15.74,0,0,0,7.07,1.69,16.07,16.07,0,0,0,7.18-1.69,15.43,15.43,0,0,0,6.1-5.89,36.2,36.2,0,0,0,4.25-11.32A84.8,84.8,0,0,0,2210.71,3086.17Z"/><path class="cls-1" d="M2250.3,3123.28h20.22v-58.15c0-2.25.06-4.63.2-7.11l-14.35,12a4.9,4.9,0,0,1-1.82,1,6.56,6.56,0,0,1-1.83.28,5.44,5.44,0,0,1-2.52-.59,4.66,4.66,0,0,1-1.69-1.35l-5.38-7.38,30.42-25.87h14v87.13h17.93V3136H2250.3Z"/><path class="cls-1" d="M2330.32,3123.28h20.21v-58.15c0-2.25.07-4.63.21-7.11l-14.35,12a4.94,4.94,0,0,1-1.83,1,6.55,6.55,0,0,1-1.82.28,5.41,5.41,0,0,1-2.52-.59,4.66,4.66,0,0,1-1.69-1.35l-5.38-7.38,30.42-25.87h14v87.13h17.94V3136h-55.19Z"/><path class="cls-1" d="M2468.35,3086.17a81.86,81.86,0,0,1-2.79,22.66,46.44,46.44,0,0,1-7.73,15.9,31.18,31.18,0,0,1-11.66,9.34,34.47,34.47,0,0,1-14.52,3.07,34.06,34.06,0,0,1-14.45-3.07,31,31,0,0,1-11.55-9.34,46.38,46.38,0,0,1-7.66-15.9,94.57,94.57,0,0,1,0-45.36,46.25,46.25,0,0,1,7.66-15.86,31,31,0,0,1,11.55-9.35,34.06,34.06,0,0,1,14.45-3.07,34.47,34.47,0,0,1,14.52,3.07,31.21,31.21,0,0,1,11.66,9.35,46.31,46.31,0,0,1,7.73,15.86A81.77,81.77,0,0,1,2468.35,3086.17Zm-17.59,0a85,85,0,0,0-1.58-17.94,36.14,36.14,0,0,0-4.25-11.31,15.46,15.46,0,0,0-6.1-5.9,16.07,16.07,0,0,0-7.18-1.69,15.74,15.74,0,0,0-7.07,1.69,15.32,15.32,0,0,0-6,5.9,36,36,0,0,0-4.17,11.31,103.88,103.88,0,0,0,0,35.87,36,36,0,0,0,4.17,11.32,15.29,15.29,0,0,0,6,5.89,15.74,15.74,0,0,0,7.07,1.69,16.07,16.07,0,0,0,7.18-1.69,15.43,15.43,0,0,0,6.1-5.89,36.2,36.2,0,0,0,4.25-11.32A84.8,84.8,0,0,0,2450.76,3086.17Z"/><path class="cls-1" d="M2490.35,3123.28h20.22v-58.15c0-2.25.06-4.63.2-7.11l-14.35,12a4.9,4.9,0,0,1-1.82,1,6.56,6.56,0,0,1-1.83.28,5.44,5.44,0,0,1-2.52-.59,4.66,4.66,0,0,1-1.69-1.35l-5.38-7.38,30.42-25.87h14v87.13h17.93V3136h-55.19Z"/><path class="cls-1" d="M2570.37,3123.28h20.21v-58.15c0-2.25.07-4.63.21-7.11l-14.35,12a4.94,4.94,0,0,1-1.83,1,6.55,6.55,0,0,1-1.82.28,5.41,5.41,0,0,1-2.52-.59,4.66,4.66,0,0,1-1.69-1.35l-5.38-7.38,30.42-25.87h14v87.13h17.94V3136h-55.19Z"/><path class="cls-1" d="M2708.4,3086.17a81.86,81.86,0,0,1-2.79,22.66,46.44,46.44,0,0,1-7.73,15.9,31.18,31.18,0,0,1-11.66,9.34,34.47,34.47,0,0,1-14.52,3.07,34.06,34.06,0,0,1-14.45-3.07,31.08,31.08,0,0,1-11.55-9.34,46.38,46.38,0,0,1-7.66-15.9,94.57,94.57,0,0,1,0-45.36,46.25,46.25,0,0,1,7.66-15.86,31.11,31.11,0,0,1,11.55-9.35,34.06,34.06,0,0,1,14.45-3.07,34.47,34.47,0,0,1,14.52,3.07,31.21,31.21,0,0,1,11.66,9.35,46.31,46.31,0,0,1,7.73,15.86A81.77,81.77,0,0,1,2708.4,3086.17Zm-17.59,0a85,85,0,0,0-1.58-17.94,36.14,36.14,0,0,0-4.25-11.31,15.46,15.46,0,0,0-6.1-5.9,16.07,16.07,0,0,0-7.18-1.69,15.74,15.74,0,0,0-7.07,1.69,15.38,15.38,0,0,0-6,5.9,36,36,0,0,0-4.17,11.31,103.88,103.88,0,0,0,0,35.87,36,36,0,0,0,4.17,11.32,15.35,15.35,0,0,0,6,5.89,15.74,15.74,0,0,0,7.07,1.69,16.07,16.07,0,0,0,7.18-1.69,15.43,15.43,0,0,0,6.1-5.89,36.2,36.2,0,0,0,4.25-11.32A84.8,84.8,0,0,0,2690.81,3086.17Z"/><path class="cls-1" d="M2730.4,3123.28h20.22v-58.15c0-2.25.07-4.63.2-7.11l-14.35,12a4.9,4.9,0,0,1-1.82,1,6.56,6.56,0,0,1-1.83.28,5.44,5.44,0,0,1-2.52-.59,4.66,4.66,0,0,1-1.69-1.35l-5.38-7.38,30.42-25.87h14v87.13h17.93V3136H2730.4Z"/><path class="cls-1" d="M2868.44,3086.17a81.46,81.46,0,0,1-2.8,22.66,46.61,46.61,0,0,1-7.72,15.9,31.26,31.26,0,0,1-11.66,9.34,34.54,34.54,0,0,1-14.52,3.07,34,34,0,0,1-14.45-3.07,31.11,31.11,0,0,1-11.56-9.34,46.56,46.56,0,0,1-7.66-15.9,94.9,94.9,0,0,1,0-45.36,46.43,46.43,0,0,1,7.66-15.86,31.14,31.14,0,0,1,11.56-9.35,34,34,0,0,1,14.45-3.07,34.54,34.54,0,0,1,14.52,3.07,31.29,31.29,0,0,1,11.66,9.35,46.49,46.49,0,0,1,7.72,15.86A81.37,81.37,0,0,1,2868.44,3086.17Zm-17.6,0a84.31,84.31,0,0,0-1.58-17.94,36.15,36.15,0,0,0-4.24-11.31,15.48,15.48,0,0,0-6.11-5.9,16.06,16.06,0,0,0-7.17-1.69,15.68,15.68,0,0,0-7.07,1.69,15.34,15.34,0,0,0-6,5.9,36,36,0,0,0-4.17,11.31,103.88,103.88,0,0,0,0,35.87,36,36,0,0,0,4.17,11.32,15.31,15.31,0,0,0,6,5.89,15.68,15.68,0,0,0,7.07,1.69,16.06,16.06,0,0,0,7.17-1.69,15.45,15.45,0,0,0,6.11-5.89,36.21,36.21,0,0,0,4.24-11.32A84.14,84.14,0,0,0,2850.84,3086.17Z"/><path class="cls-1" d="M2890.44,3123.28h20.21v-58.15c0-2.25.07-4.63.21-7.11l-14.35,12a5,5,0,0,1-1.83,1,6.56,6.56,0,0,1-1.83.28,5.37,5.37,0,0,1-2.51-.59,4.58,4.58,0,0,1-1.69-1.35l-5.39-7.38,30.43-25.87h14v87.13h17.93V3136h-55.18Z"/><path class="cls-1" d="M2970.46,3123.28h20.21v-58.15c0-2.25.07-4.63.21-7.11l-14.35,12a5,5,0,0,1-1.83,1,6.56,6.56,0,0,1-1.83.28,5.44,5.44,0,0,1-2.52-.59,4.75,4.75,0,0,1-1.69-1.35l-5.38-7.38,30.42-25.87h14v87.13h17.93V3136h-55.18Z"/><path class="cls-1" d="M3050.47,3123.28h20.21v-58.15c0-2.25.07-4.63.21-7.11l-14.35,12a5,5,0,0,1-1.82,1,6.67,6.67,0,0,1-1.83.28,5.44,5.44,0,0,1-2.52-.59,4.66,4.66,0,0,1-1.69-1.35l-5.38-7.38,30.42-25.87h14v87.13h17.94V3136h-55.19Z"/><path class="cls-1" d="M3130.49,3123.28h20.21v-58.15c0-2.25.07-4.63.21-7.11l-14.35,12a5,5,0,0,1-1.83,1,6.56,6.56,0,0,1-1.83.28,5.4,5.4,0,0,1-2.51-.59,4.58,4.58,0,0,1-1.69-1.35l-5.38-7.38,30.42-25.87h14v87.13h17.93V3136h-55.18Z"/><g class="cls-27"><path class="cls-7" d="M2686.63,667.81a8.53,8.53,0,0,1,1.77-11.26c7.47-6.06,15.32-11.89,23.32-17.33a8.53,8.53,0,0,1,11.84,2.26l.09.14a8.53,8.53,0,0,1-2.35,11.7c-7.61,5.16-15.06,10.7-22.16,16.46a8.51,8.51,0,0,1-12-1.25A7.4,7.4,0,0,1,2686.63,667.81Zm62.48-40.06a8.36,8.36,0,0,1-.5-.88,8.52,8.52,0,0,1,3.85-11.41c8.66-4.29,17.59-8.25,26.54-11.77a8.52,8.52,0,1,1,6.24,15.85c-8.5,3.35-17,7.11-25.22,11.19A8.52,8.52,0,0,1,2749.11,627.75Zm69.74-25.3a8.62,8.62,0,0,1-1.14-2.67,8.53,8.53,0,0,1,6.3-10.27c9.38-2.25,19-4.12,28.51-5.55a8.52,8.52,0,0,1,2.54,16.85c-9.06,1.36-18.17,3.13-27.08,5.27A8.54,8.54,0,0,1,2818.85,602.45Zm73.67-9.07a8.53,8.53,0,0,1,7.06-13.17c9.65-.09,19.42.23,29,1a8.52,8.52,0,1,1-1.29,17c-9.13-.69-18.41-1-27.58-.91A8.54,8.54,0,0,1,2892.52,593.38Zm73.84,7.58a8.52,8.52,0,0,1,8.95-13c9.4,2,18.86,4.52,28.09,7.36a8.52,8.52,0,0,1-5,16.29c-8.78-2.7-17.76-5.06-26.7-7A8.51,8.51,0,0,1,2966.36,601Zm70.32,23.72a8.52,8.52,0,0,1,10.74-12.38c8.73,4.09,17.41,8.59,25.77,13.4a8.52,8.52,0,0,1-8.5,14.77c-8-4.57-16.18-8.85-24.48-12.73A8.38,8.38,0,0,1,3036.68,624.68ZM3224.1,875.15a8.2,8.2,0,0,1-1.28-3.36c-1.38-9-3.17-18.16-5.33-27.08a8.52,8.52,0,0,1,16.56-4c2.27,9.39,4.16,19,5.61,28.51a8.52,8.52,0,0,1-15.56,5.93ZM3100,663.38A8.52,8.52,0,0,1,3112.32,652c7.61,5.92,15.06,12.25,22.13,18.8a8.52,8.52,0,0,1-11.58,12.5c-6.71-6.23-13.78-12.23-21-17.85A8.49,8.49,0,0,1,3100,663.38Zm104.78,140.13a9.49,9.49,0,0,1-.79-1.52c-3.37-8.52-7.15-17-11.24-25.21a8.52,8.52,0,1,1,15.26-7.59c4.3,8.64,8.28,17.57,11.83,26.53a8.52,8.52,0,0,1-15.06,7.79ZM3153,715.23a8.52,8.52,0,0,1,13.75-10c6.08,7.47,11.93,15.3,17.37,23.28l.1.15a8.52,8.52,0,0,1-14.18,9.44c-5.17-7.58-10.72-15-16.5-22.11C3153.34,715.73,3153.16,715.48,3153,715.23Z"/><path class="cls-7" d="M3227.71,934.87a8.5,8.5,0,0,1-1.38-4.9c.14-4.39.18-8.86.13-13.28a8.52,8.52,0,0,1,17-.18c.05,4.65,0,9.35-.14,14a8.51,8.51,0,0,1-15.65,4.39Z"/></g><g class="cls-27"><path class="cls-7" d="M3119.12,1170.8a8.52,8.52,0,0,1,1.42-11c3.26-2.95,6.5-6,9.65-9.12a8.52,8.52,0,0,1,12,12.14c-3.32,3.27-6.74,6.5-10.17,9.6a8.51,8.51,0,0,1-12-.59A7.76,7.76,0,0,1,3119.12,1170.8Z"/><path class="cls-7" d="M2618.29,1106.56q-3.21-4.92-6.27-10a8.52,8.52,0,1,1,14.58-8.82c4.72,7.81,9.74,15.4,15,22.66a8.52,8.52,0,0,1-13.8,10C2624.54,1115.9,2621.35,1111.25,2618.29,1106.56Zm-26.86-50a8.57,8.57,0,0,1-.69-1.27c-3.77-8.73-7.21-17.71-10.23-26.7a8.51,8.51,0,1,1,16.14-5.42c2.87,8.53,6.15,17.06,9.73,25.35a8.52,8.52,0,0,1-15,8Zm65.1,98.22a8.52,8.52,0,0,1,13.3-10.53c6.22,6.5,12.81,12.82,19.58,18.79a8.52,8.52,0,1,1-11.27,12.78c-7.13-6.28-14.06-12.94-20.62-19.79A9.06,9.06,0,0,1,2656.53,1154.79Zm-86.54-168a8.65,8.65,0,0,1-1.23-3.07c-1.76-9.33-3.14-18.85-4.11-28.29a8.51,8.51,0,1,1,16.94-1.74c.93,9,2.24,18,3.92,26.87a8.53,8.53,0,0,1-15.52,6.23Zm142.54,214.86a8.52,8.52,0,0,1,11.85-11.75c7.5,5,15.31,9.69,23.23,14a8.52,8.52,0,0,1-8.18,15c-8.34-4.57-16.57-9.54-24.46-14.77A8.5,8.5,0,0,1,2712.53,1201.6Zm64.92,33.39a8.52,8.52,0,0,1,10.18-12.61c8.43,3.22,17.09,6.12,25.74,8.63a8.52,8.52,0,1,1-4.73,16.36c-9.11-2.63-18.22-5.69-27.09-9.08A8.42,8.42,0,0,1,2777.45,1235Zm70.66,18.44a8.4,8.4,0,0,1-1.29-5.88,8.52,8.52,0,0,1,9.66-7.19c8.94,1.31,18,2.26,27,2.81a8.52,8.52,0,1,1-1,17c-9.46-.59-19-1.59-28.43-3A8.47,8.47,0,0,1,2848.11,1253.43Zm73,2.6a8.51,8.51,0,0,1,6.5-13.14c9-.67,18.07-1.74,27-3.17a8.52,8.52,0,1,1,2.7,16.82c-9.37,1.51-18.92,2.63-28.39,3.34A8.51,8.51,0,0,1,2921.1,1256Zm71.8-13.5a8.73,8.73,0,0,1-1-2.16,8.53,8.53,0,0,1,5.65-10.64c8.61-2.63,17.22-5.67,25.6-9a8.52,8.52,0,1,1,6.34,15.81c-8.82,3.54-17.88,6.74-26.95,9.51A8.52,8.52,0,0,1,2992.9,1242.53Zm67-28.92-.27-.45a8.51,8.51,0,0,1,3.2-11.61c5.77-3.28,11.51-6.78,17.07-10.4q3-2,6-4a8.53,8.53,0,0,1,11.84,2.23,8.42,8.42,0,0,1-2.23,11.84q-3.11,2.13-6.28,4.19c-5.84,3.81-11.88,7.49-18,10.94A8.52,8.52,0,0,1,3059.94,1213.61Z"/><path class="cls-7" d="M2564.47,913.7a8.49,8.49,0,0,1-1.37-5c.16-4.61.42-9.3.78-14a8.51,8.51,0,0,1,17,1.3c-.33,4.42-.58,8.87-.74,13.25a8.52,8.52,0,0,1-15.65,4.35Z"/></g><path class="cls-28" d="M2653.53,869.38a4,4,0,0,0,1.42,4.4l38.84,29a211.14,211.14,0,0,0,5.7,68.15l-33.44,35a4,4,0,0,0-.65,4.58l26.66,51.65a4,4,0,0,0,4.11,2.12l47.92-7a211.28,211.28,0,0,0,52.26,44.12l1.13,48.45a4,4,0,0,0,2.77,3.7l55.37,17.67a4,4,0,0,0,4.4-1.41l29-38.84a211.15,211.15,0,0,0,68.15-5.71l35,33.44a4,4,0,0,0,4.58.66l51.65-26.66a4,4,0,0,0,2.12-4.12l-7-47.92a210.71,210.71,0,0,0,44.12-52.26l48.45-1.12a4,4,0,0,0,3.7-2.77l17.67-55.38a4,4,0,0,0-1.41-4.4l-38.84-29a211.21,211.21,0,0,0-5.71-68.16l33.44-35a4,4,0,0,0,.66-4.58L3119,776.37a4,4,0,0,0-4.11-2.11l-47.93,7a210.92,210.92,0,0,0-52.26-44.12l-1.12-48.45a4,4,0,0,0-2.77-3.7l-55.38-17.67a4,4,0,0,0-4.4,1.42l-29,38.84a211.2,211.2,0,0,0-68.16,5.7l-35-33.44a4,4,0,0,0-4.57-.65l-51.66,26.66a4,4,0,0,0-2.11,4.11l7,47.92a211.5,211.5,0,0,0-44.12,52.26l-48.45,1.13a4,4,0,0,0-3.7,2.77Z"/><path class="cls-6" d="M2856.53,951.14a58.45,58.45,0,1,1,5.2,6.83A60.06,60.06,0,0,1,2856.53,951.14Zm86.57-56.25a46.08,46.08,0,0,0-4-5.29,44.78,44.78,0,1,0,4,5.29Z"/><path class="cls-6" d="M2786.48,998.21a144.87,144.87,0,0,1-7.42-12.76h0c-.72-1.38-1.41-2.78-2.09-4.19a146.42,146.42,0,0,1-8.21-21.5c0-.1-.05-.2-.08-.3-.09-.28-.17-.56-.25-.85-.16-.55-.31-1.11-.46-1.67a3.41,3.41,0,0,1,1.43-3.74,3.56,3.56,0,0,1,1-.44,3.41,3.41,0,0,1,4.18,2.4,137,137,0,0,0,120,100.66,135.91,135.91,0,0,0,75-14.67,138.12,138.12,0,0,0,12.18-7.08,136.89,136.89,0,0,0,46.65-177.3c-34.63-67.07-117.33-93.44-184.38-58.83q-6.2,3.21-12,7a136.5,136.5,0,0,0-41.52,42.47,3.41,3.41,0,1,1-5.8-3.59,143.39,143.39,0,0,1,43.6-44.59q6.11-4,12.61-7.34c70.4-36.34,157.24-8.61,193.57,61.76a143.7,143.7,0,0,1-49,186.13q-6.15,4-12.78,7.43a143.7,143.7,0,0,1-186.14-49Z"/><g class="cls-27"><path class="cls-7" d="M2339.83,546.8a5.24,5.24,0,0,1,.41-6.29c2.9-3.4,6-6.75,9.06-10a5.26,5.26,0,0,1,7.57,7.31c-3,3.07-5.87,6.26-8.64,9.5a5.26,5.26,0,0,1-7.42.58A5.49,5.49,0,0,1,2339.83,546.8Z"/><path class="cls-7" d="M2368.85,518.59a5.27,5.27,0,0,1,1.11-7A229.21,229.21,0,0,1,2388.69,498q2-1.32,4.11-2.61a5.44,5.44,0,0,1,7.25,1.69,5.27,5.27,0,0,1-1.69,7.24c-1.32.82-2.63,1.66-3.93,2.5a217.88,217.88,0,0,0-17.86,13,5.27,5.27,0,0,1-7.4-.79C2369.06,518.89,2369,518.74,2368.85,518.59Zm46.4-28.85a5.32,5.32,0,0,1-.37-.66,5.26,5.26,0,0,1,2.56-7,227.86,227.86,0,0,1,26.07-10.21,5.26,5.26,0,1,1,3.23,10,216.91,216.91,0,0,0-24.87,9.75A5.26,5.26,0,0,1,2415.25,489.74Zm52-16.74a5.26,5.26,0,0,1,3.43-8,226,226,0,0,1,27.81-3.49,5.26,5.26,0,1,1,.66,10.5,216.49,216.49,0,0,0-26.51,3.33A5.25,5.25,0,0,1,2467.25,473Zm54.53-3.44a5.26,5.26,0,0,1,4.73-8.12,229.31,229.31,0,0,1,27.81,3.42,5.26,5.26,0,1,1-1.93,10.34,216,216,0,0,0-26.52-3.25A5.27,5.27,0,0,1,2521.78,469.56Zm53.72,10a5.26,5.26,0,0,1,6-7.89,231.31,231.31,0,0,1,26.13,10.06,5.26,5.26,0,0,1-4.37,9.58,219.2,219.2,0,0,0-24.93-9.6A5.25,5.25,0,0,1,2575.5,479.54Zm49.66,22.72a5.26,5.26,0,0,1,7.16-7.36A225.39,225.39,0,0,1,2655.2,511a5.26,5.26,0,0,1-6.58,8.21,216.92,216.92,0,0,0-21.82-15.38A5.23,5.23,0,0,1,2625.16,502.26Zm42.58,34.15a5.26,5.26,0,0,1,8.19-6.53,227.18,227.18,0,0,1,18.23,21.26,5.27,5.27,0,0,1-8.4,6.35,216,216,0,0,0-17.38-20.28A5.35,5.35,0,0,1,2667.74,536.41Zm45.16,68.08a5.34,5.34,0,0,1-.44-.82,219.86,219.86,0,0,0-10.22-20.87c-.57-1-1.14-2-1.72-3a5.26,5.26,0,0,1,9.11-5.28c.61,1.06,1.22,2.13,1.82,3.21a230,230,0,0,1,10.7,21.86,5.26,5.26,0,0,1-9.25,4.93Z"/></g><g class="cls-27"><path class="cls-7" d="M2324.24,815a5.26,5.26,0,0,1,8.78-5.8,218.76,218.76,0,0,0,15.91,20.9,5.26,5.26,0,1,1-8,6.87A228.27,228.27,0,0,1,2324.28,815Zm-13.62-23.22c-.1-.16-.2-.33-.29-.5a229.81,229.81,0,0,1-11-25.26,5.26,5.26,0,1,1,9.88-3.62,220.12,220.12,0,0,0,10.49,24.11,5.26,5.26,0,0,1-9.09,5.27Zm48.71,63.9a5.26,5.26,0,0,1,7.94-6.77,219.55,219.55,0,0,0,20.51,16.43,5.27,5.27,0,0,1-6.08,8.6,228.61,228.61,0,0,1-21.49-17.23A5.29,5.29,0,0,1,2359.33,855.64Zm-67.13-114.4a5.43,5.43,0,0,1-.72-1.69,225.55,225.55,0,0,1-4.57-27.19,5.26,5.26,0,0,1,10.46-1.1,217,217,0,0,0,4.36,25.92,5.26,5.26,0,0,1-9.53,4.06Zm111,145.38a5.26,5.26,0,0,1,6.9-7.51,215.38,215.38,0,0,0,23.85,11,5.27,5.27,0,0,1-3.83,9.81,230.1,230.1,0,0,1-25-11.56A5.23,5.23,0,0,1,2403.21,886.62Zm50,19.56a5.26,5.26,0,0,1,5.71-8,219.31,219.31,0,0,0,25.81,5,5.26,5.26,0,1,1-1.37,10.43,227,227,0,0,1-27.05-5.24A5.24,5.24,0,0,1,2453.25,906.18Zm53.28,7a5.27,5.27,0,0,1,4.47-8.13,214.88,214.88,0,0,0,26.25-1.34,5.26,5.26,0,0,1,1.17,10.46,227.75,227.75,0,0,1-27.53,1.4A5.27,5.27,0,0,1,2506.53,913.19Z"/><path class="cls-7" d="M2286.53,687.54a5.26,5.26,0,0,1-.85-3c.08-4.51.29-9,.63-13.44a5.26,5.26,0,1,1,10.49.8c-.32,4.21-.52,8.52-.6,12.82a5.26,5.26,0,0,1-9.67,2.78Z"/></g><path class="cls-28" d="M2345.87,654.09a2.66,2.66,0,0,0,.94,2.95l26,19.39a141.05,141.05,0,0,0,3.81,45.6l-22.37,23.44a2.66,2.66,0,0,0-.44,3.07l17.84,34.56a2.65,2.65,0,0,0,2.75,1.41l32.07-4.66a141.24,141.24,0,0,0,35,29.52l.75,32.42a2.66,2.66,0,0,0,1.85,2.48l37.06,11.82a2.65,2.65,0,0,0,2.94-.94l19.39-26a141.11,141.11,0,0,0,45.61-3.81l23.44,22.37a2.64,2.64,0,0,0,3.06.44l34.56-17.84a2.67,2.67,0,0,0,1.42-2.75l-4.67-32.07a141.49,141.49,0,0,0,29.53-35l32.42-.75a2.66,2.66,0,0,0,2.47-1.85l11.82-37.06a2.65,2.65,0,0,0-.94-2.94l-26-19.39a141.4,141.4,0,0,0-3.82-45.61l22.38-23.44a2.67,2.67,0,0,0,.44-3.06l-17.84-34.56a2.69,2.69,0,0,0-2.76-1.42l-32.06,4.67a141.28,141.28,0,0,0-35-29.53l-.75-32.42a2.67,2.67,0,0,0-1.86-2.47l-37.05-11.82a2.66,2.66,0,0,0-2.95.94l-19.39,26a141.32,141.32,0,0,0-45.6,3.82l-23.45-22.38a2.67,2.67,0,0,0-3.06-.44l-34.56,17.84a2.67,2.67,0,0,0-1.41,2.76l4.66,32.06a141.24,141.24,0,0,0-29.52,35l-32.42.75a2.68,2.68,0,0,0-2.48,1.86Z"/><path class="cls-6" d="M2481.09,709.14a39.88,39.88,0,1,1,3.57,4.69A40.87,40.87,0,0,1,2481.09,709.14ZM2539,671.51a29.28,29.28,0,1,0-46.47,35.36h0A29.28,29.28,0,0,0,2539,671.51Z"/><path class="cls-6" d="M2432.28,741.84q-2.72-4.19-5.07-8.71a100.39,100.39,0,0,1-7.4-18.79l-.24-.88a5.27,5.27,0,0,1,2.2-5.78,5.43,5.43,0,0,1,1.51-.67,5.27,5.27,0,0,1,6.45,3.71,89.28,89.28,0,0,0,6.83,17.58h0c.15.31.32.61.48.92a87.79,87.79,0,0,0,29.08,32.2,89.24,89.24,0,0,0,21.47,10.4l.18.06.58.19a88.06,88.06,0,0,0,67.57-5.68q4.08-2.11,7.88-4.59A88.6,88.6,0,1,0,2440,641a5.37,5.37,0,0,1-1.61,1.64,5.26,5.26,0,0,1-7.34-7.18,98.92,98.92,0,0,1,30.08-30.77,100.09,100.09,0,0,1,8.7-5.06,99.12,99.12,0,0,1,99.75,171c-2.83,1.84-5.77,3.56-8.81,5.13A99.27,99.27,0,0,1,2432.28,741.84Z"/><rect class="cls-29" x="2827.39" y="2196.67" width="851.72" height="764.83" rx="19.93"/><rect class="cls-30" x="2871.91" y="2236.64" width="762.69" height="684.89" rx="19.93"/><text class="cls-31" transform="translate(3034.83 2730)">ML</text></g></svg>